<svg width="250" height="375" viewBox="0 0 250 375" fill="none" xmlns="http://www.w3.org/2000/svg">
<g clip-path="url(#clip0_106_7)">
<g filter="url(#filter0_d_106_7)">
<rect width="250" height="375" rx="56" fill="#D9D9D9"/>
<rect x="8" y="8" width="234" height="359" rx="48" stroke="black" stroke-width="16"/>
</g>
<rect x="204.226" y="8" width="37.7736" height="37.3133" fill="#D9D9D9" stroke="black" stroke-width="16"/>
<rect x="8" y="329.687" width="37.7736" height="37.3133" fill="#D9D9D9" stroke="black" stroke-width="16"/>
<path d="M157.817 171.19V188.68H159.027L164.527 195.28V203.31C161.74 203.31 159.944 203.823 159.137 204.85C158.33 205.877 157.927 207.49 157.927 209.69V211.12C157.927 214.933 156.974 218.197 155.067 220.91C153.234 223.623 150.74 225.677 147.587 227.07C141.647 229.637 134.9 230.92 127.347 230.92C116.787 230.92 108.134 228.39 101.387 223.33C94.6404 218.343 91.2671 212.073 91.2671 204.52V203.31H90.1671L84.6671 196.71V188.68C87.8938 188.68 90.1304 188.79 91.3771 189.01V164.59C91.3771 160.777 92.2938 157.513 94.1271 154.8C96.0338 152.013 98.5638 149.923 101.717 148.53C107.51 145.963 114.22 144.68 121.847 144.68C132.554 144.68 141.207 147.137 147.807 152.05C154.48 156.89 157.817 163.27 157.817 171.19ZM97.0971 192.31C97.9771 191.797 98.8938 190.917 99.8471 189.67H102.597C103.55 190.99 104.43 191.87 105.237 192.31C106.557 190.77 108.06 189.78 109.747 189.34V167.67C109.747 163.93 110.884 161.033 113.157 158.98C115.43 156.853 118.364 155.79 121.957 155.79C125.55 155.79 128.447 156.817 130.647 158.87C132.847 160.923 133.947 163.857 133.947 167.67V189.34C135.634 189.78 137.137 190.77 138.457 192.31C139.19 191.87 140.07 190.99 141.097 189.67H143.847C144.8 190.99 145.717 191.87 146.597 192.31C147.33 191.357 148.174 190.623 149.127 190.11V164.81C149.127 161.73 148.32 159.053 146.707 156.78C145.094 154.507 142.93 152.747 140.217 151.5C137.504 150.253 134.607 149.337 131.527 148.75C128.447 148.163 125.22 147.87 121.847 147.87C118.474 147.87 115.247 148.163 112.167 148.75C109.16 149.337 106.264 150.253 103.477 151.5C100.764 152.747 98.6004 154.507 96.9871 156.78C95.3738 159.053 94.5671 161.73 94.5671 164.81V190.11C95.5938 190.77 96.4371 191.503 97.0971 192.31ZM109.087 219.59C112.974 220.543 117.227 221.02 121.847 221.02C126.467 221.02 130.72 220.543 134.607 219.59C138.494 218.637 141.867 216.877 144.727 214.31C147.66 211.67 149.127 208.37 149.127 204.41V203.31C149.127 197.223 151.51 194.18 156.277 194.18V191.54C154.957 191.54 153.93 191.613 153.197 191.76C152.537 191.833 151.62 192.273 150.447 193.08C149.347 193.813 148.32 194.95 147.367 196.49C145.754 196.123 144.14 194.877 142.527 192.75C141.207 194.657 139.52 195.903 137.467 196.49C136.587 194.95 135.597 193.813 134.497 193.08C133.397 192.273 132.48 191.833 131.747 191.76C131.014 191.613 129.987 191.54 128.667 191.54V194.18C131.087 194.18 132.81 194.877 133.837 196.27C134.864 197.663 135.377 199.057 135.377 200.45C135.377 204.41 134.094 207.527 131.527 209.8C128.96 212 125.734 213.1 121.847 213.1C117.96 213.1 114.734 212 112.167 209.8C109.6 207.527 108.317 204.41 108.317 200.45C108.317 199.057 108.83 197.663 109.857 196.27C110.884 194.877 112.607 194.18 115.027 194.18V191.54C113.707 191.54 112.68 191.613 111.947 191.76C111.214 191.833 110.297 192.273 109.197 193.08C108.097 193.813 107.107 194.95 106.227 196.49C104.32 196.123 102.634 194.877 101.167 192.75C99.7004 194.657 98.0871 195.903 96.3271 196.49C95.3738 194.95 94.3104 193.813 93.1371 193.08C92.0371 192.273 91.1204 191.833 90.3871 191.76C89.7271 191.613 88.7371 191.54 87.4171 191.54V194.18C92.1838 194.18 94.5671 197.223 94.5671 203.31V204.41C94.5671 208.37 95.9971 211.67 98.8571 214.31C101.79 216.877 105.2 218.637 109.087 219.59ZM118.437 174.38V189.23L123.497 195.28V203.31C122.25 203.383 121.26 203.493 120.527 203.64C119.794 203.713 118.987 204.08 118.107 204.74C117.3 205.4 116.897 206.353 116.897 207.6C116.897 209.14 118.364 209.91 121.297 209.91C124.23 209.91 126.577 209.323 128.337 208.15C130.17 206.903 131.38 205.29 131.967 203.31H131.197L125.697 196.71V188.68C128.044 188.68 129.73 188.717 130.757 188.79V167.78C130.757 167.193 130.354 166.717 129.547 166.35C128.74 165.91 128.007 165.69 127.347 165.69C124.634 165.69 122.47 166.46 120.857 168C119.244 169.467 118.437 171.593 118.437 174.38Z" fill="black"/>
</g>
<defs>
<filter id="filter0_d_106_7" x="-4" y="0" width="258" height="383" filterUnits="userSpaceOnUse" color-interpolation-filters="sRGB">
<feFlood flood-opacity="0" result="BackgroundImageFix"/>
<feColorMatrix in="SourceAlpha" type="matrix" values="0 0 0 0 0 0 0 0 0 0 0 0 0 0 0 0 0 0 127 0" result="hardAlpha"/>
<feOffset dy="4"/>
<feGaussianBlur stdDeviation="2"/>
<feComposite in2="hardAlpha" operator="out"/>
<feColorMatrix type="matrix" values="0 0 0 0 0 0 0 0 0 0 0 0 0 0 0 0 0 0 0.25 0"/>
<feBlend mode="normal" in2="BackgroundImageFix" result="effect1_dropShadow_106_7"/>
<feBlend mode="normal" in="SourceGraphic" in2="effect1_dropShadow_106_7" result="shape"/>
</filter>
<clipPath id="clip0_106_7">
<rect width="250" height="375" fill="white"/>
</clipPath>
</defs>
</svg>
