<svg width="250" height="375" viewBox="0 0 250 375" fill="none" xmlns="http://www.w3.org/2000/svg">
<g clip-path="url(#clip0_106_9)">
<g filter="url(#filter0_d_106_9)">
<rect width="250" height="375" rx="56" fill="#D9D9D9"/>
<rect x="8" y="8" width="234" height="359" rx="48" stroke="black" stroke-width="16"/>
</g>
<rect x="204.226" y="8" width="37.7736" height="37.3133" fill="#D9D9D9" stroke="black" stroke-width="16"/>
<rect x="8" y="329.687" width="37.7736" height="37.3133" fill="#D9D9D9" stroke="black" stroke-width="16"/>
<path d="M139.751 188.861H140.631L146.131 195.461V203.491C143.271 203.491 141.401 204.004 140.521 205.031C139.714 206.057 139.311 207.707 139.311 209.981V211.631C139.824 211.631 140.264 211.337 140.631 210.751L143.711 212.731L149.211 219.331C148.771 222.777 147.524 225.381 145.471 227.141C143.417 228.901 140.924 229.781 137.991 229.781C135.131 229.781 132.307 228.791 129.521 226.811C126.734 228.791 123.837 229.781 120.831 229.781C117.897 229.781 114.524 228.021 110.711 224.501C106.897 220.981 104.771 217.057 104.331 212.731L107.411 210.751C107.704 211.411 108.401 211.741 109.501 211.741C112.654 211.741 114.231 208.991 114.231 203.491H112.911L107.411 196.891V188.861C110.417 188.861 112.544 188.971 113.791 189.191V172.251H109.501L104.001 165.651V156.411C106.494 156.411 109.171 155.201 112.031 152.781C114.891 150.361 116.467 148.161 116.761 146.181H134.251L139.751 152.781V188.861ZM119.951 192.491C120.684 192.051 121.564 191.171 122.591 189.851H125.451C126.404 191.171 127.284 192.051 128.091 192.491C128.824 191.464 129.777 190.657 130.951 190.071V149.261H118.961C118.521 151.387 116.834 153.514 113.901 155.641C111.041 157.694 108.767 158.721 107.081 158.721V162.351H117.091V190.071C118.117 190.584 119.071 191.391 119.951 192.491ZM124.351 216.471C126.991 218.744 129.887 219.881 133.041 219.881C136.267 219.881 138.614 218.047 140.081 214.381C139.567 214.674 138.981 214.821 138.321 214.821C133.187 214.821 130.621 211.044 130.621 203.491C130.621 197.331 133.041 194.251 137.881 194.251V191.501C136.487 191.501 135.424 191.574 134.691 191.721C133.957 191.794 133.041 192.234 131.941 193.041C130.841 193.847 129.851 195.057 128.971 196.671C127.211 196.304 125.561 195.021 124.021 192.821C122.481 194.801 120.831 196.084 119.071 196.671C118.117 195.057 117.091 193.847 115.991 193.041C114.891 192.234 113.974 191.794 113.241 191.721C112.507 191.574 111.481 191.501 110.161 191.501V194.251C115.001 194.251 117.421 197.331 117.421 203.491C117.421 209.064 116.247 212.547 113.901 213.941C112.801 214.527 111.407 214.821 109.721 214.821L107.961 214.381C109.427 218.047 111.737 219.881 114.891 219.881C118.117 219.881 121.051 218.744 123.691 216.471H124.351Z" fill="black"/>
</g>
<defs>
<filter id="filter0_d_106_9" x="-4" y="0" width="258" height="383" filterUnits="userSpaceOnUse" color-interpolation-filters="sRGB">
<feFlood flood-opacity="0" result="BackgroundImageFix"/>
<feColorMatrix in="SourceAlpha" type="matrix" values="0 0 0 0 0 0 0 0 0 0 0 0 0 0 0 0 0 0 127 0" result="hardAlpha"/>
<feOffset dy="4"/>
<feGaussianBlur stdDeviation="2"/>
<feComposite in2="hardAlpha" operator="out"/>
<feColorMatrix type="matrix" values="0 0 0 0 0 0 0 0 0 0 0 0 0 0 0 0 0 0 0.25 0"/>
<feBlend mode="normal" in2="BackgroundImageFix" result="effect1_dropShadow_106_9"/>
<feBlend mode="normal" in="SourceGraphic" in2="effect1_dropShadow_106_9" result="shape"/>
</filter>
<clipPath id="clip0_106_9">
<rect width="250" height="375" fill="white"/>
</clipPath>
</defs>
</svg>
