<svg width="250" height="375" viewBox="0 0 250 375" fill="none" xmlns="http://www.w3.org/2000/svg">
<g clip-path="url(#clip0_108_5)">
<g filter="url(#filter0_d_108_5)">
<rect width="250" height="375" rx="56" fill="#D9D9D9"/>
<rect x="8" y="8" width="234" height="359" rx="48" stroke="black" stroke-width="16"/>
</g>
<rect x="204.226" y="8" width="37.7736" height="37.3133" fill="#D9D9D9" stroke="black" stroke-width="16"/>
<rect x="8" y="329.687" width="37.7736" height="37.3133" fill="#D9D9D9" stroke="black" stroke-width="16"/>
<path d="M56.0641 188.68H56.9441L62.4441 195.28V203.31C59.5841 203.31 57.7141 203.823 56.8341 204.85C56.0274 205.877 55.6241 207.527 55.6241 209.8V211.45C56.1374 211.45 56.5774 211.157 56.9441 210.57L60.0241 212.55L65.5241 219.15C65.0841 222.597 63.8374 225.2 61.7841 226.96C59.7308 228.72 57.2374 229.6 54.3041 229.6C51.4441 229.6 48.6208 228.61 45.8341 226.63C43.0474 228.61 40.1508 229.6 37.1441 229.6C34.2108 229.6 30.8374 227.84 27.0241 224.32C23.2108 220.8 21.0841 216.877 20.6441 212.55L23.7241 210.57C24.0174 211.23 24.7141 211.56 25.8141 211.56C28.9674 211.56 30.5441 208.81 30.5441 203.31H29.2241L23.7241 196.71V188.68C26.7308 188.68 28.8574 188.79 30.1041 189.01V172.07H25.8141L20.3141 165.47V156.23C22.8074 156.23 25.4841 155.02 28.3441 152.6C31.2041 150.18 32.7808 147.98 33.0741 146H50.5641L56.0641 152.6V188.68ZM36.2641 192.31C36.9974 191.87 37.8774 190.99 38.9041 189.67H41.7641C42.7174 190.99 43.5974 191.87 44.4041 192.31C45.1374 191.283 46.0908 190.477 47.2641 189.89V149.08H35.2741C34.8341 151.207 33.1474 153.333 30.2141 155.46C27.3541 157.513 25.0808 158.54 23.3941 158.54V162.17H33.4041V189.89C34.4308 190.403 35.3841 191.21 36.2641 192.31ZM40.6641 216.29C43.3041 218.563 46.2008 219.7 49.3541 219.7C52.5808 219.7 54.9274 217.867 56.3941 214.2C55.8808 214.493 55.2941 214.64 54.6341 214.64C49.5008 214.64 46.9341 210.863 46.9341 203.31C46.9341 197.15 49.3541 194.07 54.1941 194.07V191.32C52.8008 191.32 51.7374 191.393 51.0041 191.54C50.2708 191.613 49.3541 192.053 48.2541 192.86C47.1541 193.667 46.1641 194.877 45.2841 196.49C43.5241 196.123 41.8741 194.84 40.3341 192.64C38.7941 194.62 37.1441 195.903 35.3841 196.49C34.4308 194.877 33.4041 193.667 32.3041 192.86C31.2041 192.053 30.2874 191.613 29.5541 191.54C28.8208 191.393 27.7941 191.32 26.4741 191.32V194.07C31.3141 194.07 33.7341 197.15 33.7341 203.31C33.7341 208.883 32.5608 212.367 30.2141 213.76C29.1141 214.347 27.7208 214.64 26.0341 214.64L24.2741 214.2C25.7408 217.867 28.0508 219.7 31.2041 219.7C34.4308 219.7 37.3641 218.563 40.0041 216.29H40.6641ZM140.366 171.19V188.68H141.576L147.076 195.28V203.31C144.29 203.31 142.493 203.823 141.686 204.85C140.88 205.877 140.476 207.49 140.476 209.69V211.12C140.476 214.933 139.523 218.197 137.616 220.91C135.783 223.623 133.29 225.677 130.136 227.07C124.196 229.637 117.45 230.92 109.896 230.92C99.3362 230.92 90.6829 228.39 83.9362 223.33C77.1895 218.343 73.8162 212.073 73.8162 204.52V203.31H72.7162L67.2162 196.71V188.68C70.4429 188.68 72.6795 188.79 73.9262 189.01V164.59C73.9262 160.777 74.8429 157.513 76.6762 154.8C78.5829 152.013 81.1129 149.923 84.2662 148.53C90.0595 145.963 96.7695 144.68 104.396 144.68C115.103 144.68 123.756 147.137 130.356 152.05C137.03 156.89 140.366 163.27 140.366 171.19ZM79.6462 192.31C80.5262 191.797 81.4429 190.917 82.3962 189.67H85.1462C86.0995 190.99 86.9795 191.87 87.7862 192.31C89.1062 190.77 90.6095 189.78 92.2962 189.34V167.67C92.2962 163.93 93.4329 161.033 95.7062 158.98C97.9795 156.853 100.913 155.79 104.506 155.79C108.1 155.79 110.996 156.817 113.196 158.87C115.396 160.923 116.496 163.857 116.496 167.67V189.34C118.183 189.78 119.686 190.77 121.006 192.31C121.74 191.87 122.62 190.99 123.646 189.67H126.396C127.35 190.99 128.266 191.87 129.146 192.31C129.88 191.357 130.723 190.623 131.676 190.11V164.81C131.676 161.73 130.87 159.053 129.256 156.78C127.643 154.507 125.48 152.747 122.766 151.5C120.053 150.253 117.156 149.337 114.076 148.75C110.996 148.163 107.77 147.87 104.396 147.87C101.023 147.87 97.7962 148.163 94.7162 148.75C91.7095 149.337 88.8129 150.253 86.0262 151.5C83.3129 152.747 81.1495 154.507 79.5362 156.78C77.9229 159.053 77.1162 161.73 77.1162 164.81V190.11C78.1429 190.77 78.9862 191.503 79.6462 192.31ZM91.6362 219.59C95.5229 220.543 99.7762 221.02 104.396 221.02C109.016 221.02 113.27 220.543 117.156 219.59C121.043 218.637 124.416 216.877 127.276 214.31C130.21 211.67 131.676 208.37 131.676 204.41V203.31C131.676 197.223 134.06 194.18 138.826 194.18V191.54C137.506 191.54 136.48 191.613 135.746 191.76C135.086 191.833 134.17 192.273 132.996 193.08C131.896 193.813 130.87 194.95 129.916 196.49C128.303 196.123 126.69 194.877 125.076 192.75C123.756 194.657 122.07 195.903 120.016 196.49C119.136 194.95 118.146 193.813 117.046 193.08C115.946 192.273 115.03 191.833 114.296 191.76C113.563 191.613 112.536 191.54 111.216 191.54V194.18C113.636 194.18 115.36 194.877 116.386 196.27C117.413 197.663 117.926 199.057 117.926 200.45C117.926 204.41 116.643 207.527 114.076 209.8C111.51 212 108.283 213.1 104.396 213.1C100.51 213.1 97.2829 212 94.7162 209.8C92.1495 207.527 90.8662 204.41 90.8662 200.45C90.8662 199.057 91.3795 197.663 92.4062 196.27C93.4329 194.877 95.1562 194.18 97.5762 194.18V191.54C96.2562 191.54 95.2295 191.613 94.4962 191.76C93.7629 191.833 92.8462 192.273 91.7462 193.08C90.6462 193.813 89.6562 194.95 88.7762 196.49C86.8695 196.123 85.1829 194.877 83.7162 192.75C82.2495 194.657 80.6362 195.903 78.8762 196.49C77.9229 194.95 76.8595 193.813 75.6862 193.08C74.5862 192.273 73.6695 191.833 72.9362 191.76C72.2762 191.613 71.2862 191.54 69.9662 191.54V194.18C74.7329 194.18 77.1162 197.223 77.1162 203.31V204.41C77.1162 208.37 78.5462 211.67 81.4062 214.31C84.3395 216.877 87.7495 218.637 91.6362 219.59ZM100.986 174.38V189.23L106.046 195.28V203.31C104.8 203.383 103.81 203.493 103.076 203.64C102.343 203.713 101.536 204.08 100.656 204.74C99.8495 205.4 99.4462 206.353 99.4462 207.6C99.4462 209.14 100.913 209.91 103.846 209.91C106.78 209.91 109.126 209.323 110.886 208.15C112.72 206.903 113.93 205.29 114.516 203.31H113.746L108.246 196.71V188.68C110.593 188.68 112.28 188.717 113.306 188.79V167.78C113.306 167.193 112.903 166.717 112.096 166.35C111.29 165.91 110.556 165.69 109.896 165.69C107.183 165.69 105.02 166.46 103.406 168C101.793 169.467 100.986 171.593 100.986 174.38ZM223.081 171.19V188.68H224.291L229.791 195.28V203.31C227.004 203.31 225.208 203.823 224.401 204.85C223.594 205.877 223.191 207.49 223.191 209.69V211.12C223.191 214.933 222.238 218.197 220.331 220.91C218.498 223.623 216.004 225.677 212.851 227.07C206.911 229.637 200.164 230.92 192.611 230.92C182.051 230.92 173.398 228.39 166.651 223.33C159.904 218.343 156.531 212.073 156.531 204.52V203.31H155.431L149.931 196.71V188.68C153.158 188.68 155.394 188.79 156.641 189.01V164.59C156.641 160.777 157.558 157.513 159.391 154.8C161.298 152.013 163.828 149.923 166.981 148.53C172.774 145.963 179.484 144.68 187.111 144.68C197.818 144.68 206.471 147.137 213.071 152.05C219.744 156.89 223.081 163.27 223.081 171.19ZM162.361 192.31C163.241 191.797 164.158 190.917 165.111 189.67H167.861C168.814 190.99 169.694 191.87 170.501 192.31C171.821 190.77 173.324 189.78 175.011 189.34V167.67C175.011 163.93 176.148 161.033 178.421 158.98C180.694 156.853 183.628 155.79 187.221 155.79C190.814 155.79 193.711 156.817 195.911 158.87C198.111 160.923 199.211 163.857 199.211 167.67V189.34C200.898 189.78 202.401 190.77 203.721 192.31C204.454 191.87 205.334 190.99 206.361 189.67H209.111C210.064 190.99 210.981 191.87 211.861 192.31C212.594 191.357 213.438 190.623 214.391 190.11V164.81C214.391 161.73 213.584 159.053 211.971 156.78C210.358 154.507 208.194 152.747 205.481 151.5C202.768 150.253 199.871 149.337 196.791 148.75C193.711 148.163 190.484 147.87 187.111 147.87C183.738 147.87 180.511 148.163 177.431 148.75C174.424 149.337 171.528 150.253 168.741 151.5C166.028 152.747 163.864 154.507 162.251 156.78C160.638 159.053 159.831 161.73 159.831 164.81V190.11C160.858 190.77 161.701 191.503 162.361 192.31ZM174.351 219.59C178.238 220.543 182.491 221.02 187.111 221.02C191.731 221.02 195.984 220.543 199.871 219.59C203.758 218.637 207.131 216.877 209.991 214.31C212.924 211.67 214.391 208.37 214.391 204.41V203.31C214.391 197.223 216.774 194.18 221.541 194.18V191.54C220.221 191.54 219.194 191.613 218.461 191.76C217.801 191.833 216.884 192.273 215.711 193.08C214.611 193.813 213.584 194.95 212.631 196.49C211.018 196.123 209.404 194.877 207.791 192.75C206.471 194.657 204.784 195.903 202.731 196.49C201.851 194.95 200.861 193.813 199.761 193.08C198.661 192.273 197.744 191.833 197.011 191.76C196.278 191.613 195.251 191.54 193.931 191.54V194.18C196.351 194.18 198.074 194.877 199.101 196.27C200.128 197.663 200.641 199.057 200.641 200.45C200.641 204.41 199.358 207.527 196.791 209.8C194.224 212 190.998 213.1 187.111 213.1C183.224 213.1 179.998 212 177.431 209.8C174.864 207.527 173.581 204.41 173.581 200.45C173.581 199.057 174.094 197.663 175.121 196.27C176.148 194.877 177.871 194.18 180.291 194.18V191.54C178.971 191.54 177.944 191.613 177.211 191.76C176.478 191.833 175.561 192.273 174.461 193.08C173.361 193.813 172.371 194.95 171.491 196.49C169.584 196.123 167.898 194.877 166.431 192.75C164.964 194.657 163.351 195.903 161.591 196.49C160.638 194.95 159.574 193.813 158.401 193.08C157.301 192.273 156.384 191.833 155.651 191.76C154.991 191.613 154.001 191.54 152.681 191.54V194.18C157.448 194.18 159.831 197.223 159.831 203.31V204.41C159.831 208.37 161.261 211.67 164.121 214.31C167.054 216.877 170.464 218.637 174.351 219.59ZM183.701 174.38V189.23L188.761 195.28V203.31C187.514 203.383 186.524 203.493 185.791 203.64C185.058 203.713 184.251 204.08 183.371 204.74C182.564 205.4 182.161 206.353 182.161 207.6C182.161 209.14 183.628 209.91 186.561 209.91C189.494 209.91 191.841 209.323 193.601 208.15C195.434 206.903 196.644 205.29 197.231 203.31H196.461L190.961 196.71V188.68C193.308 188.68 194.994 188.717 196.021 188.79V167.78C196.021 167.193 195.618 166.717 194.811 166.35C194.004 165.91 193.271 165.69 192.611 165.69C189.898 165.69 187.734 166.46 186.121 168C184.508 169.467 183.701 171.593 183.701 174.38Z" fill="black"/>
</g>
<defs>
<filter id="filter0_d_108_5" x="-4" y="0" width="258" height="383" filterUnits="userSpaceOnUse" color-interpolation-filters="sRGB">
<feFlood flood-opacity="0" result="BackgroundImageFix"/>
<feColorMatrix in="SourceAlpha" type="matrix" values="0 0 0 0 0 0 0 0 0 0 0 0 0 0 0 0 0 0 127 0" result="hardAlpha"/>
<feOffset dy="4"/>
<feGaussianBlur stdDeviation="2"/>
<feComposite in2="hardAlpha" operator="out"/>
<feColorMatrix type="matrix" values="0 0 0 0 0 0 0 0 0 0 0 0 0 0 0 0 0 0 0.25 0"/>
<feBlend mode="normal" in2="BackgroundImageFix" result="effect1_dropShadow_108_5"/>
<feBlend mode="normal" in="SourceGraphic" in2="effect1_dropShadow_108_5" result="shape"/>
</filter>
<clipPath id="clip0_108_5">
<rect width="250" height="375" fill="white"/>
</clipPath>
</defs>
</svg>
