<svg width="250" height="375" viewBox="0 0 250 375" fill="none" xmlns="http://www.w3.org/2000/svg">
<g clip-path="url(#clip0_106_4)">
<g filter="url(#filter0_d_106_4)">
<rect width="250" height="375" rx="56" fill="#D9D9D9"/>
<rect x="8" y="8" width="234" height="359" rx="48" stroke="black" stroke-width="16"/>
</g>
<rect x="204" y="8" width="38" height="37" fill="#D9D9D9" stroke="black" stroke-width="16"/>
<rect x="8" y="329.687" width="37.7736" height="37.3133" fill="#D9D9D9" stroke="black" stroke-width="16"/>
<path d="M102.48 187.68H103.36L108.86 194.28V202.31C106 202.31 104.13 202.823 103.25 203.85C102.443 204.877 102.04 206.527 102.04 208.8V210.45C102.553 210.45 102.993 210.157 103.36 209.57L106.44 211.55L111.94 218.15C111.5 221.597 110.253 224.2 108.2 225.96C106.146 227.72 103.653 228.6 100.72 228.6C97.8597 228.6 95.0363 227.61 92.2497 225.63C89.463 227.61 86.5663 228.6 83.5597 228.6C80.6263 228.6 77.253 226.84 73.4397 223.32C69.6263 219.8 67.4997 215.877 67.0597 211.55L70.1397 209.57C70.433 210.23 71.1297 210.56 72.2297 210.56C75.383 210.56 76.9597 207.81 76.9597 202.31H75.6397L70.1397 195.71V187.68C73.1463 187.68 75.273 187.79 76.5197 188.01V171.07H72.2297L66.7297 164.47V155.23C69.223 155.23 71.8997 154.02 74.7597 151.6C77.6197 149.18 79.1963 146.98 79.4897 145H96.9797L102.48 151.6V187.68ZM82.6797 191.31C83.413 190.87 84.293 189.99 85.3197 188.67H88.1797C89.133 189.99 90.013 190.87 90.8197 191.31C91.553 190.283 92.5063 189.477 93.6797 188.89V148.08H81.6897C81.2497 150.207 79.563 152.333 76.6297 154.46C73.7697 156.513 71.4963 157.54 69.8097 157.54V161.17H79.8197V188.89C80.8463 189.403 81.7997 190.21 82.6797 191.31ZM87.0797 215.29C89.7197 217.563 92.6163 218.7 95.7697 218.7C98.9963 218.7 101.343 216.867 102.81 213.2C102.296 213.493 101.71 213.64 101.05 213.64C95.9163 213.64 93.3497 209.863 93.3497 202.31C93.3497 196.15 95.7697 193.07 100.61 193.07V190.32C99.2163 190.32 98.153 190.393 97.4197 190.54C96.6863 190.613 95.7697 191.053 94.6697 191.86C93.5697 192.667 92.5797 193.877 91.6997 195.49C89.9397 195.123 88.2897 193.84 86.7497 191.64C85.2097 193.62 83.5597 194.903 81.7997 195.49C80.8463 193.877 79.8197 192.667 78.7197 191.86C77.6197 191.053 76.703 190.613 75.9697 190.54C75.2363 190.393 74.2097 190.32 72.8897 190.32V193.07C77.7297 193.07 80.1497 196.15 80.1497 202.31C80.1497 207.883 78.9763 211.367 76.6297 212.76C75.5297 213.347 74.1363 213.64 72.4497 213.64L70.6897 213.2C72.1563 216.867 74.4663 218.7 77.6197 218.7C80.8463 218.7 83.7797 217.563 86.4197 215.29H87.0797ZM177.102 170.08C177.102 174.26 174.975 178.11 170.722 181.63C172.702 183.39 174.535 185.443 176.222 187.79C177.102 187.717 178.642 187.68 180.842 187.68L186.342 194.28V202.31C183.555 202.31 181.722 202.86 180.842 203.96C180.035 204.987 179.632 206.563 179.632 208.69V209.79C179.485 214.263 178.018 218.077 175.232 221.23C170.245 227.023 163.095 229.92 153.782 229.92C146.522 229.92 140.288 227.5 135.082 222.66C133.542 224.2 131.525 225.557 129.032 226.73C126.538 227.977 124.265 228.6 122.212 228.6L116.712 222L114.842 219.14C116.088 218.333 116.712 216.683 116.712 214.19V194.17H129.472L134.972 200.77V204.18L135.302 207.26C136.768 207.993 138.785 208.36 141.352 208.36C146.412 208.36 149.308 206.343 150.042 202.31H149.052L143.552 195.71V190.32H140.912L135.412 183.72V176.24H123.202L117.702 169.64V145H131.342L133.982 148.08C138.308 145.147 143.332 143.68 149.052 143.68C156.385 143.68 162.875 146.137 168.522 151.05C174.242 155.963 177.102 162.307 177.102 170.08ZM155.982 191.31C156.715 190.87 157.595 189.99 158.622 188.67H160.382L162.142 190.65L164.012 188.67H165.882C166.908 189.99 167.788 190.87 168.522 191.31L169.512 190.21C169.952 189.843 170.428 189.477 170.942 189.11C170.428 186.397 168.888 183.977 166.322 181.85C163.828 179.723 161.005 178.477 157.852 178.11V176.46C160.638 175.14 163.095 173.307 165.222 170.96C167.348 168.54 168.412 165.937 168.412 163.15C168.412 158.163 166.542 154.203 162.802 151.27C159.135 148.263 154.552 146.76 149.052 146.76C140.618 146.76 133.982 149.803 129.142 155.89H128.592V148.08H120.232V166.56H128.152C130.425 158.347 134.825 154.24 141.352 154.24C145.018 154.24 147.658 155.34 149.272 157.54C150.958 159.74 151.802 161.977 151.802 164.25C151.802 166.45 151.288 168.393 150.262 170.08C149.308 171.693 148.098 172.903 146.632 173.71C143.845 175.177 141.095 175.91 138.382 175.91V180.86H138.822C146.082 180.86 150.738 183.537 152.792 188.89C154.185 189.55 155.248 190.357 155.982 191.31ZM146.302 190.54V193.18C148.722 193.18 150.482 193.987 151.582 195.6C152.755 197.14 153.342 198.68 153.342 200.22V200.99C153.342 203.777 152.315 206.233 150.262 208.36C148.208 210.487 145.165 211.55 141.132 211.55C137.172 211.55 133.798 210.377 131.012 208.03C128.298 205.683 126.758 202.09 126.392 197.25H119.902V212.98C119.902 216.207 119.535 218.077 118.802 218.59C120.122 218.443 121.955 217.637 124.302 216.17C126.722 214.63 128.335 213.31 129.142 212.21C132.808 215.217 135.925 217.343 138.492 218.59C141.132 219.837 144.395 220.46 148.282 220.46C154.295 220.46 159.502 219.067 163.902 216.28C168.375 213.42 170.722 209.24 170.942 203.74V202.31C170.942 196.223 173.325 193.18 178.092 193.18V190.54C174.938 190.54 172.628 191.383 171.162 193.07C170.575 193.803 170.025 194.61 169.512 195.49C167.752 195.05 166.065 193.95 164.452 192.19L162.142 194.5L159.942 192.19C158.475 193.803 156.825 194.903 154.992 195.49C154.112 194.17 153.488 193.327 153.122 192.96C151.655 191.347 149.382 190.54 146.302 190.54ZM146.852 163.81C142.012 163.81 138.638 167 136.732 173.38C144.725 172.94 148.722 169.86 148.722 164.14L146.852 163.81Z" fill="black"/>
</g>
<defs>
<filter id="filter0_d_106_4" x="-4" y="0" width="258" height="383" filterUnits="userSpaceOnUse" color-interpolation-filters="sRGB">
<feFlood flood-opacity="0" result="BackgroundImageFix"/>
<feColorMatrix in="SourceAlpha" type="matrix" values="0 0 0 0 0 0 0 0 0 0 0 0 0 0 0 0 0 0 127 0" result="hardAlpha"/>
<feOffset dy="4"/>
<feGaussianBlur stdDeviation="2"/>
<feComposite in2="hardAlpha" operator="out"/>
<feColorMatrix type="matrix" values="0 0 0 0 0 0 0 0 0 0 0 0 0 0 0 0 0 0 0.25 0"/>
<feBlend mode="normal" in2="BackgroundImageFix" result="effect1_dropShadow_106_4"/>
<feBlend mode="normal" in="SourceGraphic" in2="effect1_dropShadow_106_4" result="shape"/>
</filter>
<clipPath id="clip0_106_4">
<rect width="250" height="375" fill="white"/>
</clipPath>
</defs>
</svg>
