<svg width="250" height="375" viewBox="0 0 250 375" fill="none" xmlns="http://www.w3.org/2000/svg">
<g clip-path="url(#clip0_106_8)">
<g filter="url(#filter0_d_106_8)">
<rect width="250" height="375" rx="56" fill="#D9D9D9"/>
<rect x="8" y="8" width="234" height="359" rx="48" stroke="black" stroke-width="16"/>
</g>
<rect x="204.226" y="8" width="37.7736" height="37.3133" fill="#D9D9D9" stroke="black" stroke-width="16"/>
<rect x="8" y="329.687" width="37.7736" height="37.3133" fill="#D9D9D9" stroke="black" stroke-width="16"/>
<path d="M80.0997 187.68H80.9797L86.4797 194.28V202.31C83.6197 202.31 81.7497 202.823 80.8697 203.85C80.063 204.877 79.6597 206.527 79.6597 208.8V210.45C80.173 210.45 80.613 210.157 80.9797 209.57L84.0597 211.55L89.5597 218.15C89.1197 221.597 87.873 224.2 85.8197 225.96C83.7664 227.72 81.273 228.6 78.3397 228.6C75.4797 228.6 72.6564 227.61 69.8697 225.63C67.083 227.61 64.1864 228.6 61.1797 228.6C58.2464 228.6 54.873 226.84 51.0597 223.32C47.2464 219.8 45.1197 215.877 44.6797 211.55L47.7597 209.57C48.053 210.23 48.7497 210.56 49.8497 210.56C53.003 210.56 54.5797 207.81 54.5797 202.31H53.2597L47.7597 195.71V187.68C50.7664 187.68 52.893 187.79 54.1397 188.01V171.07H49.8497L44.3497 164.47V155.23C46.843 155.23 49.5197 154.02 52.3797 151.6C55.2397 149.18 56.8164 146.98 57.1097 145H74.5997L80.0997 151.6V187.68ZM60.2997 191.31C61.033 190.87 61.913 189.99 62.9397 188.67H65.7997C66.753 189.99 67.633 190.87 68.4397 191.31C69.173 190.283 70.1264 189.477 71.2997 188.89V148.08H59.3097C58.8697 150.207 57.183 152.333 54.2497 154.46C51.3897 156.513 49.1164 157.54 47.4297 157.54V161.17H57.4397V188.89C58.4664 189.403 59.4197 190.21 60.2997 191.31ZM64.6997 215.29C67.3397 217.563 70.2364 218.7 73.3897 218.7C76.6164 218.7 78.963 216.867 80.4297 213.2C79.9164 213.493 79.3297 213.64 78.6697 213.64C73.5364 213.64 70.9697 209.863 70.9697 202.31C70.9697 196.15 73.3897 193.07 78.2297 193.07V190.32C76.8364 190.32 75.773 190.393 75.0397 190.54C74.3064 190.613 73.3897 191.053 72.2897 191.86C71.1897 192.667 70.1997 193.877 69.3197 195.49C67.5597 195.123 65.9097 193.84 64.3697 191.64C62.8297 193.62 61.1797 194.903 59.4197 195.49C58.4664 193.877 57.4397 192.667 56.3397 191.86C55.2397 191.053 54.323 190.613 53.5897 190.54C52.8564 190.393 51.8297 190.32 50.5097 190.32V193.07C55.3497 193.07 57.7697 196.15 57.7697 202.31C57.7697 207.883 56.5964 211.367 54.2497 212.76C53.1497 213.347 51.7564 213.64 50.0697 213.64L48.3097 213.2C49.7764 216.867 52.0864 218.7 55.2397 218.7C58.4664 218.7 61.3997 217.563 64.0397 215.29H64.6997ZM116.882 228.6H98.9518L93.4518 222L105.002 145.11H122.932L128.432 151.71L116.882 228.6ZM97.6318 219.03H108.192L118.862 148.08H108.192L97.6318 219.03ZM199.791 170.08C199.791 172.72 198.948 175.287 197.261 177.78C195.648 180.273 192.751 183.573 188.571 187.68C184.391 191.713 181.824 194.28 180.871 195.38V202.2C179.624 202.273 178.634 202.383 177.901 202.53C177.168 202.603 176.398 203.007 175.591 203.74C174.858 204.4 174.491 205.353 174.491 206.6V207.26C175.664 207.627 177.168 207.81 179.001 207.81C180.834 207.81 182.594 207.223 184.281 206.05C185.968 204.803 186.811 203.08 186.811 200.88C186.811 199.853 186.664 198.79 186.371 197.69V194.28H199.021L204.521 200.88V220.79C204.521 223.21 205.181 224.86 206.501 225.74L204.521 228.6C202.541 228.6 200.524 228.123 198.471 227.17C196.491 226.29 194.951 225.3 193.851 224.2C189.818 227.133 185.088 228.6 179.661 228.6C174.308 228.6 169.798 227.28 166.131 224.64C162.904 227.28 158.944 228.6 154.251 228.6C149.631 228.6 145.304 226.693 141.271 222.88C137.238 219.14 135.221 215.4 135.221 211.66L138.741 209.57C138.888 210.303 139.658 210.67 141.051 210.67C142.444 210.67 143.728 209.79 144.901 208.03C146.148 206.27 146.808 204.327 146.881 202.2L141.381 195.6L142.591 187.68C146.478 187.68 149.118 187.9 150.511 188.34C152.271 186.067 154.984 183.317 158.651 180.09C162.318 176.79 165.251 173.857 167.451 171.29C169.651 168.723 170.751 166.267 170.751 163.92C170.458 163.847 170.091 163.81 169.651 163.81C166.864 163.81 164.554 164.873 162.721 167C160.888 169.053 159.751 171.107 159.311 173.16L158.541 176.24H145.561L140.061 169.64V145H153.701L156.121 147.97C160.008 145.11 164.591 143.68 169.871 143.68C175.151 143.68 179.991 144.743 184.391 146.87C188.791 148.923 192.458 152.003 195.391 156.11C198.324 160.217 199.791 164.873 199.791 170.08ZM154.471 191.42C155.498 190.907 156.598 189.99 157.771 188.67H160.521C161.328 190.137 162.208 191.053 163.161 191.42C164.994 189.073 167.964 187.827 172.071 187.68C173.464 186.14 176.068 183.61 179.881 180.09C183.768 176.497 186.591 173.453 188.351 170.96C190.184 168.467 191.101 165.863 191.101 163.15C191.101 158.237 189.048 154.277 184.941 151.27C180.908 148.263 176.104 146.76 170.531 146.76C162.978 146.76 156.598 149.803 151.391 155.89H150.951V148.08H142.591V166.56H150.731C152.711 158.347 157.184 154.24 164.151 154.24C167.744 154.24 170.274 155.34 171.741 157.54C173.208 159.667 173.941 161.83 173.941 164.03C173.941 166.23 173.171 168.503 171.631 170.85C170.091 173.197 168.331 175.25 166.351 177.01C159.898 182.73 155.534 187.02 153.261 189.88L154.471 191.42ZM189.451 197.36L190.001 201.43C190.001 204.363 188.864 206.673 186.591 208.36C184.318 210.047 181.531 210.89 178.231 210.89C174.931 210.89 172.071 209.973 169.651 208.14C167.304 206.307 166.131 203.41 166.131 199.45C166.131 197.397 166.754 195.82 168.001 194.72C169.321 193.62 170.788 193.07 172.401 193.07V190.43C171.228 190.43 170.274 190.503 169.541 190.65C168.808 190.797 167.928 191.273 166.901 192.08C165.874 192.813 164.958 193.95 164.151 195.49C161.144 194.243 159.311 192.997 158.651 191.75C156.891 193.657 154.948 194.903 152.821 195.49C152.234 193.95 151.464 192.777 150.511 191.97C149.558 191.163 148.714 190.723 147.981 190.65C147.321 190.503 146.331 190.43 145.011 190.43L144.461 193.07C148.568 193.73 150.621 196.333 150.621 200.88C150.621 204.033 149.631 206.967 147.651 209.68C145.671 212.393 143.251 213.75 140.391 213.75L138.741 213.31C139.034 214.85 140.208 216.207 142.261 217.38C144.388 218.48 146.514 219.03 148.641 219.03C152.968 219.03 156.891 217.27 160.411 213.75L161.291 214.52C164.738 217.527 168.954 219.03 173.941 219.03C178.928 219.03 183.731 217.27 188.351 213.75C188.938 214.41 190.184 215.363 192.091 216.61C194.071 217.783 195.648 218.443 196.821 218.59C196.234 218.003 195.941 216.133 195.941 212.98V197.36H189.451Z" fill="black"/>
</g>
<defs>
<filter id="filter0_d_106_8" x="-4" y="0" width="258" height="383" filterUnits="userSpaceOnUse" color-interpolation-filters="sRGB">
<feFlood flood-opacity="0" result="BackgroundImageFix"/>
<feColorMatrix in="SourceAlpha" type="matrix" values="0 0 0 0 0 0 0 0 0 0 0 0 0 0 0 0 0 0 127 0" result="hardAlpha"/>
<feOffset dy="4"/>
<feGaussianBlur stdDeviation="2"/>
<feComposite in2="hardAlpha" operator="out"/>
<feColorMatrix type="matrix" values="0 0 0 0 0 0 0 0 0 0 0 0 0 0 0 0 0 0 0.25 0"/>
<feBlend mode="normal" in2="BackgroundImageFix" result="effect1_dropShadow_106_8"/>
<feBlend mode="normal" in="SourceGraphic" in2="effect1_dropShadow_106_8" result="shape"/>
</filter>
<clipPath id="clip0_106_8">
<rect width="250" height="375" fill="white"/>
</clipPath>
</defs>
</svg>
