<svg width="250" height="375" viewBox="0 0 250 375" fill="none" xmlns="http://www.w3.org/2000/svg">
<g clip-path="url(#clip0_106_10)">
<g filter="url(#filter0_d_106_10)">
<rect width="250" height="375" rx="56" fill="#D9D9D9"/>
<rect x="8" y="8" width="234" height="359" rx="48" stroke="black" stroke-width="16"/>
</g>
<rect x="204.227" y="8" width="37.7736" height="37.3133" fill="#D9D9D9" stroke="black" stroke-width="16"/>
<rect x="8" y="329.687" width="37.7736" height="37.3133" fill="#D9D9D9" stroke="black" stroke-width="16"/>
<path d="M154.492 171.08C154.492 173.72 153.649 176.287 151.962 178.78C150.349 181.273 147.452 184.573 143.272 188.68C139.092 192.713 136.525 195.28 135.572 196.38V203.2C134.325 203.273 133.335 203.383 132.602 203.53C131.869 203.603 131.099 204.007 130.292 204.74C129.559 205.4 129.192 206.353 129.192 207.6V208.26C130.365 208.627 131.869 208.81 133.702 208.81C135.535 208.81 137.295 208.223 138.982 207.05C140.669 205.803 141.512 204.08 141.512 201.88C141.512 200.853 141.365 199.79 141.072 198.69V195.28H153.722L159.222 201.88V221.79C159.222 224.21 159.882 225.86 161.202 226.74L159.222 229.6C157.242 229.6 155.225 229.123 153.172 228.17C151.192 227.29 149.652 226.3 148.552 225.2C144.519 228.133 139.789 229.6 134.362 229.6C129.009 229.6 124.499 228.28 120.832 225.64C117.605 228.28 113.645 229.6 108.952 229.6C104.332 229.6 100.005 227.693 95.9722 223.88C91.9388 220.14 89.9222 216.4 89.9222 212.66L93.4422 210.57C93.5888 211.303 94.3588 211.67 95.7522 211.67C97.1455 211.67 98.4288 210.79 99.6022 209.03C100.849 207.27 101.509 205.327 101.582 203.2L96.0822 196.6L97.2922 188.68C101.179 188.68 103.819 188.9 105.212 189.34C106.972 187.067 109.685 184.317 113.352 181.09C117.019 177.79 119.952 174.857 122.152 172.29C124.352 169.723 125.452 167.267 125.452 164.92C125.159 164.847 124.792 164.81 124.352 164.81C121.565 164.81 119.255 165.873 117.422 168C115.589 170.053 114.452 172.107 114.012 174.16L113.242 177.24H100.262L94.7622 170.64V146H108.402L110.822 148.97C114.709 146.11 119.292 144.68 124.572 144.68C129.852 144.68 134.692 145.743 139.092 147.87C143.492 149.923 147.159 153.003 150.092 157.11C153.025 161.217 154.492 165.873 154.492 171.08ZM109.172 192.42C110.199 191.907 111.299 190.99 112.472 189.67H115.222C116.029 191.137 116.909 192.053 117.862 192.42C119.695 190.073 122.665 188.827 126.772 188.68C128.165 187.14 130.769 184.61 134.582 181.09C138.469 177.497 141.292 174.453 143.052 171.96C144.885 169.467 145.802 166.863 145.802 164.15C145.802 159.237 143.749 155.277 139.642 152.27C135.609 149.263 130.805 147.76 125.232 147.76C117.679 147.76 111.299 150.803 106.092 156.89H105.652V149.08H97.2922V167.56H105.432C107.412 159.347 111.885 155.24 118.852 155.24C122.445 155.24 124.975 156.34 126.442 158.54C127.909 160.667 128.642 162.83 128.642 165.03C128.642 167.23 127.872 169.503 126.332 171.85C124.792 174.197 123.032 176.25 121.052 178.01C114.599 183.73 110.235 188.02 107.962 190.88L109.172 192.42ZM144.152 198.36L144.702 202.43C144.702 205.363 143.565 207.673 141.292 209.36C139.019 211.047 136.232 211.89 132.932 211.89C129.632 211.89 126.772 210.973 124.352 209.14C122.005 207.307 120.832 204.41 120.832 200.45C120.832 198.397 121.455 196.82 122.702 195.72C124.022 194.62 125.489 194.07 127.102 194.07V191.43C125.929 191.43 124.975 191.503 124.242 191.65C123.509 191.797 122.629 192.273 121.602 193.08C120.575 193.813 119.659 194.95 118.852 196.49C115.845 195.243 114.012 193.997 113.352 192.75C111.592 194.657 109.649 195.903 107.522 196.49C106.935 194.95 106.165 193.777 105.212 192.97C104.259 192.163 103.415 191.723 102.682 191.65C102.022 191.503 101.032 191.43 99.7122 191.43L99.1622 194.07C103.269 194.73 105.322 197.333 105.322 201.88C105.322 205.033 104.332 207.967 102.352 210.68C100.372 213.393 97.9522 214.75 95.0922 214.75L93.4422 214.31C93.7355 215.85 94.9088 217.207 96.9622 218.38C99.0888 219.48 101.215 220.03 103.342 220.03C107.669 220.03 111.592 218.27 115.112 214.75L115.992 215.52C119.439 218.527 123.655 220.03 128.642 220.03C133.629 220.03 138.432 218.27 143.052 214.75C143.639 215.41 144.885 216.363 146.792 217.61C148.772 218.783 150.349 219.443 151.522 219.59C150.935 219.003 150.642 217.133 150.642 213.98V198.36H144.152Z" fill="black"/>
</g>
<defs>
<filter id="filter0_d_106_10" x="-4" y="0" width="258" height="383" filterUnits="userSpaceOnUse" color-interpolation-filters="sRGB">
<feFlood flood-opacity="0" result="BackgroundImageFix"/>
<feColorMatrix in="SourceAlpha" type="matrix" values="0 0 0 0 0 0 0 0 0 0 0 0 0 0 0 0 0 0 127 0" result="hardAlpha"/>
<feOffset dy="4"/>
<feGaussianBlur stdDeviation="2"/>
<feComposite in2="hardAlpha" operator="out"/>
<feColorMatrix type="matrix" values="0 0 0 0 0 0 0 0 0 0 0 0 0 0 0 0 0 0 0.25 0"/>
<feBlend mode="normal" in2="BackgroundImageFix" result="effect1_dropShadow_106_10"/>
<feBlend mode="normal" in="SourceGraphic" in2="effect1_dropShadow_106_10" result="shape"/>
</filter>
<clipPath id="clip0_106_10">
<rect width="250" height="375" fill="white"/>
</clipPath>
</defs>
</svg>
