<svg width="250" height="375" viewBox="0 0 250 375" fill="none" xmlns="http://www.w3.org/2000/svg">
<g clip-path="url(#clip0_108_3)">
<g filter="url(#filter0_d_108_3)">
<rect width="250" height="375" rx="56" fill="#D9D9D9"/>
<rect x="8" y="8" width="234" height="359" rx="48" stroke="black" stroke-width="16"/>
</g>
<rect x="204.226" y="8" width="37.7736" height="37.3133" fill="#D9D9D9" stroke="black" stroke-width="16"/>
<rect x="8" y="329.687" width="37.7736" height="37.3133" fill="#D9D9D9" stroke="black" stroke-width="16"/>
<path d="M112.588 171.046C112.588 173.686 111.744 176.253 110.058 178.746C108.444 181.24 105.548 184.54 101.368 188.646C97.1876 192.68 94.6209 195.246 93.6676 196.346V203.166C92.4209 203.24 91.4309 203.35 90.6976 203.496C89.9642 203.57 89.1942 203.973 88.3876 204.706C87.6542 205.366 87.2876 206.32 87.2876 207.566V208.226C88.4609 208.593 89.9642 208.776 91.7976 208.776C93.6309 208.776 95.3909 208.19 97.0776 207.016C98.7642 205.77 99.6076 204.046 99.6076 201.846C99.6076 200.82 99.4609 199.756 99.1676 198.656V195.246H111.818L117.318 201.846V221.756C117.318 224.176 117.978 225.826 119.298 226.706L117.318 229.566C115.338 229.566 113.321 229.09 111.268 228.136C109.288 227.256 107.748 226.266 106.648 225.166C102.614 228.1 97.8842 229.566 92.4576 229.566C87.1042 229.566 82.5942 228.246 78.9276 225.606C75.7009 228.246 71.7409 229.566 67.0476 229.566C62.4276 229.566 58.1009 227.66 54.0676 223.846C50.0342 220.106 48.0176 216.366 48.0176 212.626L51.5376 210.536C51.6842 211.27 52.4542 211.636 53.8476 211.636C55.2409 211.636 56.5242 210.756 57.6976 208.996C58.9442 207.236 59.6042 205.293 59.6776 203.166L54.1776 196.566L55.3876 188.646C59.2742 188.646 61.9142 188.866 63.3076 189.306C65.0676 187.033 67.7809 184.283 71.4476 181.056C75.1142 177.756 78.0476 174.823 80.2476 172.256C82.4476 169.69 83.5476 167.233 83.5476 164.886C83.2542 164.813 82.8876 164.776 82.4476 164.776C79.6609 164.776 77.3509 165.84 75.5176 167.966C73.6842 170.02 72.5476 172.073 72.1076 174.126L71.3376 177.206H58.3576L52.8576 170.606V145.966H66.4976L68.9176 148.936C72.8042 146.076 77.3876 144.646 82.6676 144.646C87.9476 144.646 92.7876 145.71 97.1876 147.836C101.588 149.89 105.254 152.97 108.188 157.076C111.121 161.183 112.588 165.84 112.588 171.046ZM67.2676 192.386C68.2942 191.873 69.3942 190.956 70.5676 189.636H73.3176C74.1242 191.103 75.0042 192.02 75.9576 192.386C77.7909 190.04 80.7609 188.793 84.8676 188.646C86.2609 187.106 88.8642 184.576 92.6776 181.056C96.5642 177.463 99.3876 174.42 101.148 171.926C102.981 169.433 103.898 166.83 103.898 164.116C103.898 159.203 101.844 155.243 97.7376 152.236C93.7042 149.23 88.9009 147.726 83.3276 147.726C75.7742 147.726 69.3942 150.77 64.1876 156.856H63.7476V149.046H55.3876V167.526H63.5276C65.5076 159.313 69.9809 155.206 76.9476 155.206C80.5409 155.206 83.0709 156.306 84.5376 158.506C86.0042 160.633 86.7376 162.796 86.7376 164.996C86.7376 167.196 85.9676 169.47 84.4276 171.816C82.8876 174.163 81.1276 176.216 79.1476 177.976C72.6942 183.696 68.3309 187.986 66.0576 190.846L67.2676 192.386ZM102.248 198.326L102.798 202.396C102.798 205.33 101.661 207.64 99.3876 209.326C97.1142 211.013 94.3276 211.856 91.0276 211.856C87.7276 211.856 84.8676 210.94 82.4476 209.106C80.1009 207.273 78.9276 204.376 78.9276 200.416C78.9276 198.363 79.5509 196.786 80.7976 195.686C82.1176 194.586 83.5842 194.036 85.1976 194.036V191.396C84.0242 191.396 83.0709 191.47 82.3376 191.616C81.6042 191.763 80.7242 192.24 79.6976 193.046C78.6709 193.78 77.7542 194.916 76.9476 196.456C73.9409 195.21 72.1076 193.963 71.4476 192.716C69.6876 194.623 67.7442 195.87 65.6176 196.456C65.0309 194.916 64.2609 193.743 63.3076 192.936C62.3542 192.13 61.5109 191.69 60.7776 191.616C60.1176 191.47 59.1276 191.396 57.8076 191.396L57.2576 194.036C61.3642 194.696 63.4176 197.3 63.4176 201.846C63.4176 205 62.4276 207.933 60.4476 210.646C58.4676 213.36 56.0476 214.716 53.1876 214.716L51.5376 214.276C51.8309 215.816 53.0042 217.173 55.0576 218.346C57.1842 219.446 59.3109 219.996 61.4376 219.996C65.7642 219.996 69.6876 218.236 73.2076 214.716L74.0876 215.486C77.5342 218.493 81.7509 219.996 86.7376 219.996C91.7242 219.996 96.5276 218.236 101.148 214.716C101.734 215.376 102.981 216.33 104.888 217.576C106.868 218.75 108.444 219.41 109.618 219.556C109.031 218.97 108.738 217.1 108.738 213.946V198.326H102.248ZM195.255 171.156V188.646H196.465L201.965 195.246V203.276C199.178 203.276 197.382 203.79 196.575 204.816C195.768 205.843 195.365 207.456 195.365 209.656V211.086C195.365 214.9 194.412 218.163 192.505 220.876C190.672 223.59 188.178 225.643 185.025 227.036C179.085 229.603 172.338 230.886 164.785 230.886C154.225 230.886 145.572 228.356 138.825 223.296C132.078 218.31 128.705 212.04 128.705 204.486V203.276H127.605L122.105 196.676V188.646C125.332 188.646 127.568 188.756 128.815 188.976V164.556C128.815 160.743 129.732 157.48 131.565 154.766C133.472 151.98 136.002 149.89 139.155 148.496C144.948 145.93 151.658 144.646 159.285 144.646C169.992 144.646 178.645 147.103 185.245 152.016C191.918 156.856 195.255 163.236 195.255 171.156ZM134.535 192.276C135.415 191.763 136.332 190.883 137.285 189.636H140.035C140.988 190.956 141.868 191.836 142.675 192.276C143.995 190.736 145.498 189.746 147.185 189.306V167.636C147.185 163.896 148.322 161 150.595 158.946C152.868 156.82 155.802 155.756 159.395 155.756C162.988 155.756 165.885 156.783 168.085 158.836C170.285 160.89 171.385 163.823 171.385 167.636V189.306C173.072 189.746 174.575 190.736 175.895 192.276C176.628 191.836 177.508 190.956 178.535 189.636H181.285C182.238 190.956 183.155 191.836 184.035 192.276C184.768 191.323 185.612 190.59 186.565 190.076V164.776C186.565 161.696 185.758 159.02 184.145 156.746C182.532 154.473 180.368 152.713 177.655 151.466C174.942 150.22 172.045 149.303 168.965 148.716C165.885 148.13 162.658 147.836 159.285 147.836C155.912 147.836 152.685 148.13 149.605 148.716C146.598 149.303 143.702 150.22 140.915 151.466C138.202 152.713 136.038 154.473 134.425 156.746C132.812 159.02 132.005 161.696 132.005 164.776V190.076C133.032 190.736 133.875 191.47 134.535 192.276ZM146.525 219.556C150.412 220.51 154.665 220.986 159.285 220.986C163.905 220.986 168.158 220.51 172.045 219.556C175.932 218.603 179.305 216.843 182.165 214.276C185.098 211.636 186.565 208.336 186.565 204.376V203.276C186.565 197.19 188.948 194.146 193.715 194.146V191.506C192.395 191.506 191.368 191.58 190.635 191.726C189.975 191.8 189.058 192.24 187.885 193.046C186.785 193.78 185.758 194.916 184.805 196.456C183.192 196.09 181.578 194.843 179.965 192.716C178.645 194.623 176.958 195.87 174.905 196.456C174.025 194.916 173.035 193.78 171.935 193.046C170.835 192.24 169.918 191.8 169.185 191.726C168.452 191.58 167.425 191.506 166.105 191.506V194.146C168.525 194.146 170.248 194.843 171.275 196.236C172.302 197.63 172.815 199.023 172.815 200.416C172.815 204.376 171.532 207.493 168.965 209.766C166.398 211.966 163.172 213.066 159.285 213.066C155.398 213.066 152.172 211.966 149.605 209.766C147.038 207.493 145.755 204.376 145.755 200.416C145.755 199.023 146.268 197.63 147.295 196.236C148.322 194.843 150.045 194.146 152.465 194.146V191.506C151.145 191.506 150.118 191.58 149.385 191.726C148.652 191.8 147.735 192.24 146.635 193.046C145.535 193.78 144.545 194.916 143.665 196.456C141.758 196.09 140.072 194.843 138.605 192.716C137.138 194.623 135.525 195.87 133.765 196.456C132.812 194.916 131.748 193.78 130.575 193.046C129.475 192.24 128.558 191.8 127.825 191.726C127.165 191.58 126.175 191.506 124.855 191.506V194.146C129.622 194.146 132.005 197.19 132.005 203.276V204.376C132.005 208.336 133.435 211.636 136.295 214.276C139.228 216.843 142.638 218.603 146.525 219.556ZM155.875 174.346V189.196L160.935 195.246V203.276C159.688 203.35 158.698 203.46 157.965 203.606C157.232 203.68 156.425 204.046 155.545 204.706C154.738 205.366 154.335 206.32 154.335 207.566C154.335 209.106 155.802 209.876 158.735 209.876C161.668 209.876 164.015 209.29 165.775 208.116C167.608 206.87 168.818 205.256 169.405 203.276H168.635L163.135 196.676V188.646C165.482 188.646 167.168 188.683 168.195 188.756V167.746C168.195 167.16 167.792 166.683 166.985 166.316C166.178 165.876 165.445 165.656 164.785 165.656C162.072 165.656 159.908 166.426 158.295 167.966C156.682 169.433 155.875 171.56 155.875 174.346Z" fill="black"/>
</g>
<defs>
<filter id="filter0_d_108_3" x="-4" y="0" width="258" height="383" filterUnits="userSpaceOnUse" color-interpolation-filters="sRGB">
<feFlood flood-opacity="0" result="BackgroundImageFix"/>
<feColorMatrix in="SourceAlpha" type="matrix" values="0 0 0 0 0 0 0 0 0 0 0 0 0 0 0 0 0 0 127 0" result="hardAlpha"/>
<feOffset dy="4"/>
<feGaussianBlur stdDeviation="2"/>
<feComposite in2="hardAlpha" operator="out"/>
<feColorMatrix type="matrix" values="0 0 0 0 0 0 0 0 0 0 0 0 0 0 0 0 0 0 0.25 0"/>
<feBlend mode="normal" in2="BackgroundImageFix" result="effect1_dropShadow_108_3"/>
<feBlend mode="normal" in="SourceGraphic" in2="effect1_dropShadow_108_3" result="shape"/>
</filter>
<clipPath id="clip0_108_3">
<rect width="250" height="375" fill="white"/>
</clipPath>
</defs>
</svg>
