<svg width="250" height="375" viewBox="0 0 250 375" fill="none" xmlns="http://www.w3.org/2000/svg">
<g clip-path="url(#clip0_106_11)">
<g filter="url(#filter0_d_106_11)">
<rect width="250" height="375" rx="56" fill="#D9D9D9"/>
<rect x="8" y="8" width="234" height="359" rx="48" stroke="black" stroke-width="16"/>
</g>
<rect x="204.226" y="8" width="37.7736" height="37.3133" fill="#D9D9D9" stroke="black" stroke-width="16"/>
<rect x="8" y="329.687" width="37.7736" height="37.3133" fill="#D9D9D9" stroke="black" stroke-width="16"/>
<path d="M152.563 171.261C152.563 175.441 150.437 179.291 146.183 182.811C148.163 184.571 149.997 186.624 151.683 188.971C152.563 188.897 154.103 188.861 156.303 188.861L161.803 195.461V203.491C159.017 203.491 157.183 204.041 156.303 205.141C155.497 206.167 155.093 207.744 155.093 209.871V210.971C154.947 215.444 153.48 219.257 150.693 222.411C145.707 228.204 138.557 231.101 129.243 231.101C121.983 231.101 115.75 228.681 110.543 223.841C109.003 225.381 106.987 226.737 104.493 227.911C102 229.157 99.7265 229.781 97.6732 229.781L92.1732 223.181L90.3032 220.321C91.5499 219.514 92.1732 217.864 92.1732 215.371V195.351H104.933L110.433 201.951V205.361L110.763 208.441C112.23 209.174 114.247 209.541 116.813 209.541C121.873 209.541 124.77 207.524 125.503 203.491H124.513L119.013 196.891V191.501H116.373L110.873 184.901V177.421H98.6632L93.1632 170.821V146.181H106.803L109.443 149.261C113.77 146.327 118.793 144.861 124.513 144.861C131.847 144.861 138.337 147.317 143.983 152.231C149.703 157.144 152.563 163.487 152.563 171.261ZM131.443 192.491C132.177 192.051 133.057 191.171 134.083 189.851H135.843L137.603 191.831L139.473 189.851H141.343C142.37 191.171 143.25 192.051 143.983 192.491L144.973 191.391C145.413 191.024 145.89 190.657 146.403 190.291C145.89 187.577 144.35 185.157 141.783 183.031C139.29 180.904 136.467 179.657 133.313 179.291V177.641C136.1 176.321 138.557 174.487 140.683 172.141C142.81 169.721 143.873 167.117 143.873 164.331C143.873 159.344 142.003 155.384 138.263 152.451C134.597 149.444 130.013 147.941 124.513 147.941C116.08 147.941 109.443 150.984 104.603 157.071H104.053V149.261H95.6932V167.741H103.613C105.887 159.527 110.287 155.421 116.813 155.421C120.48 155.421 123.12 156.521 124.733 158.721C126.42 160.921 127.263 163.157 127.263 165.431C127.263 167.631 126.75 169.574 125.723 171.261C124.77 172.874 123.56 174.084 122.093 174.891C119.307 176.357 116.557 177.091 113.843 177.091V182.041H114.283C121.543 182.041 126.2 184.717 128.253 190.071C129.647 190.731 130.71 191.537 131.443 192.491ZM121.763 191.721V194.361C124.183 194.361 125.943 195.167 127.043 196.781C128.217 198.321 128.803 199.861 128.803 201.401V202.171C128.803 204.957 127.777 207.414 125.723 209.541C123.67 211.667 120.627 212.731 116.593 212.731C112.633 212.731 109.26 211.557 106.473 209.211C103.76 206.864 102.22 203.271 101.853 198.431H95.3632V214.161C95.3632 217.387 94.9965 219.257 94.2632 219.771C95.5832 219.624 97.4165 218.817 99.7632 217.351C102.183 215.811 103.797 214.491 104.603 213.391C108.27 216.397 111.387 218.524 113.953 219.771C116.593 221.017 119.857 221.641 123.743 221.641C129.757 221.641 134.963 220.247 139.363 217.461C143.837 214.601 146.183 210.421 146.403 204.921V203.491C146.403 197.404 148.787 194.361 153.553 194.361V191.721C150.4 191.721 148.09 192.564 146.623 194.251C146.037 194.984 145.487 195.791 144.973 196.671C143.213 196.231 141.527 195.131 139.913 193.371L137.603 195.681L135.403 193.371C133.937 194.984 132.287 196.084 130.453 196.671C129.573 195.351 128.95 194.507 128.583 194.141C127.117 192.527 124.843 191.721 121.763 191.721ZM122.313 164.991C117.473 164.991 114.1 168.181 112.193 174.561C120.187 174.121 124.183 171.041 124.183 165.321L122.313 164.991Z" fill="black"/>
</g>
<defs>
<filter id="filter0_d_106_11" x="-4" y="0" width="258" height="383" filterUnits="userSpaceOnUse" color-interpolation-filters="sRGB">
<feFlood flood-opacity="0" result="BackgroundImageFix"/>
<feColorMatrix in="SourceAlpha" type="matrix" values="0 0 0 0 0 0 0 0 0 0 0 0 0 0 0 0 0 0 127 0" result="hardAlpha"/>
<feOffset dy="4"/>
<feGaussianBlur stdDeviation="2"/>
<feComposite in2="hardAlpha" operator="out"/>
<feColorMatrix type="matrix" values="0 0 0 0 0 0 0 0 0 0 0 0 0 0 0 0 0 0 0.25 0"/>
<feBlend mode="normal" in2="BackgroundImageFix" result="effect1_dropShadow_106_11"/>
<feBlend mode="normal" in="SourceGraphic" in2="effect1_dropShadow_106_11" result="shape"/>
</filter>
<clipPath id="clip0_106_11">
<rect width="250" height="375" fill="white"/>
</clipPath>
</defs>
</svg>
