<svg width="250" height="375" viewBox="0 0 250 375" fill="none" xmlns="http://www.w3.org/2000/svg">
<g clip-path="url(#clip0_108_4)">
<g filter="url(#filter0_d_108_4)">
<rect width="250" height="375" rx="56" fill="#D9D9D9"/>
<rect x="8" y="8" width="234" height="359" rx="48" stroke="black" stroke-width="16"/>
</g>
<rect x="204.226" y="8" width="37.7736" height="37.3133" fill="#D9D9D9" stroke="black" stroke-width="16"/>
<rect x="8" y="329.687" width="37.7736" height="37.3133" fill="#D9D9D9" stroke="black" stroke-width="16"/>
<path d="M113.624 168.076H107.464V188.646L112.964 195.246V203.166C110.177 203.166 108.344 203.716 107.464 204.816C106.657 205.843 106.254 207.53 106.254 209.876V211.526C106.694 211.38 107.097 211.05 107.464 210.536L115.824 219.226C115.384 222.673 114.174 225.24 112.194 226.926C110.214 228.686 107.831 229.566 105.044 229.566C102.257 229.566 99.2874 228.65 96.1341 226.816C93.2007 228.65 90.1574 229.566 87.0041 229.566C83.8507 229.566 80.5141 227.696 76.9941 223.956C73.5474 220.216 71.6041 216.44 71.1641 212.626L74.0241 210.536C74.4641 211.27 75.3807 211.636 76.7741 211.636C78.1674 211.636 79.3041 210.903 80.1841 209.436H55.9841L50.4841 202.836V190.296L69.6241 145.966H107.024L113.624 152.566V168.076ZM98.6641 158.286H105.044V149.046H71.3841L53.5641 190.296V199.756H81.5041V195.246C85.4641 194.44 87.9207 192.57 88.8741 189.636H92.0641C93.0907 191.03 94.0074 191.946 94.8141 192.386C95.8407 191.066 97.1241 190.113 98.6641 189.526V158.286ZM84.9141 156.746V190.296H64.6741V185.896L77.5441 156.746H84.9141ZM91.0741 216.256C93.7874 218.75 96.7207 219.996 99.8741 219.996C103.027 219.996 105.337 218.09 106.804 214.276C106.437 214.57 105.851 214.716 105.044 214.716C102.844 214.716 101.157 214.13 99.9841 212.956C98.8107 211.71 98.0774 210.39 97.7841 208.996C97.5641 207.53 97.4541 205.66 97.4541 203.386C97.4541 197.153 99.8374 194.036 104.604 194.036V191.396C101.524 191.396 99.3241 192.13 98.0041 193.596C97.2707 194.33 96.5374 195.283 95.8041 196.456C93.9707 196.163 92.2474 194.916 90.6341 192.716C89.9741 194.183 89.2774 195.21 88.5441 195.796C87.8107 196.383 86.6007 197.006 84.9141 197.666V203.386C84.9141 210.94 82.0907 214.716 76.4441 214.716L74.7941 214.276C76.2607 218.09 78.7174 219.996 82.1641 219.996C84.8774 219.996 87.5907 218.75 90.3041 216.256H91.0741ZM81.8341 187.216V173.136L75.6741 187.216H81.8341ZM192.578 171.156V188.646H193.788L199.288 195.246V203.276C196.502 203.276 194.705 203.79 193.898 204.816C193.092 205.843 192.688 207.456 192.688 209.656V211.086C192.688 214.9 191.735 218.163 189.828 220.876C187.995 223.59 185.502 225.643 182.348 227.036C176.408 229.603 169.662 230.886 162.108 230.886C151.548 230.886 142.895 228.356 136.148 223.296C129.402 218.31 126.028 212.04 126.028 204.486V203.276H124.928L119.428 196.676V188.646C122.655 188.646 124.892 188.756 126.138 188.976V164.556C126.138 160.743 127.055 157.48 128.888 154.766C130.795 151.98 133.325 149.89 136.478 148.496C142.272 145.93 148.982 144.646 156.608 144.646C167.315 144.646 175.968 147.103 182.568 152.016C189.242 156.856 192.578 163.236 192.578 171.156ZM131.858 192.276C132.738 191.763 133.655 190.883 134.608 189.636H137.358C138.312 190.956 139.192 191.836 139.998 192.276C141.318 190.736 142.822 189.746 144.508 189.306V167.636C144.508 163.896 145.645 161 147.918 158.946C150.192 156.82 153.125 155.756 156.718 155.756C160.312 155.756 163.208 156.783 165.408 158.836C167.608 160.89 168.708 163.823 168.708 167.636V189.306C170.395 189.746 171.898 190.736 173.218 192.276C173.952 191.836 174.832 190.956 175.858 189.636H178.608C179.562 190.956 180.478 191.836 181.358 192.276C182.092 191.323 182.935 190.59 183.888 190.076V164.776C183.888 161.696 183.082 159.02 181.468 156.746C179.855 154.473 177.692 152.713 174.978 151.466C172.265 150.22 169.368 149.303 166.288 148.716C163.208 148.13 159.982 147.836 156.608 147.836C153.235 147.836 150.008 148.13 146.928 148.716C143.922 149.303 141.025 150.22 138.238 151.466C135.525 152.713 133.362 154.473 131.748 156.746C130.135 159.02 129.328 161.696 129.328 164.776V190.076C130.355 190.736 131.198 191.47 131.858 192.276ZM143.848 219.556C147.735 220.51 151.988 220.986 156.608 220.986C161.228 220.986 165.482 220.51 169.368 219.556C173.255 218.603 176.628 216.843 179.488 214.276C182.422 211.636 183.888 208.336 183.888 204.376V203.276C183.888 197.19 186.272 194.146 191.038 194.146V191.506C189.718 191.506 188.692 191.58 187.958 191.726C187.298 191.8 186.382 192.24 185.208 193.046C184.108 193.78 183.082 194.916 182.128 196.456C180.515 196.09 178.902 194.843 177.288 192.716C175.968 194.623 174.282 195.87 172.228 196.456C171.348 194.916 170.358 193.78 169.258 193.046C168.158 192.24 167.242 191.8 166.508 191.726C165.775 191.58 164.748 191.506 163.428 191.506V194.146C165.848 194.146 167.572 194.843 168.598 196.236C169.625 197.63 170.138 199.023 170.138 200.416C170.138 204.376 168.855 207.493 166.288 209.766C163.722 211.966 160.495 213.066 156.608 213.066C152.722 213.066 149.495 211.966 146.928 209.766C144.362 207.493 143.078 204.376 143.078 200.416C143.078 199.023 143.592 197.63 144.618 196.236C145.645 194.843 147.368 194.146 149.788 194.146V191.506C148.468 191.506 147.442 191.58 146.708 191.726C145.975 191.8 145.058 192.24 143.958 193.046C142.858 193.78 141.868 194.916 140.988 196.456C139.082 196.09 137.395 194.843 135.928 192.716C134.462 194.623 132.848 195.87 131.088 196.456C130.135 194.916 129.072 193.78 127.898 193.046C126.798 192.24 125.882 191.8 125.148 191.726C124.488 191.58 123.498 191.506 122.178 191.506V194.146C126.945 194.146 129.328 197.19 129.328 203.276V204.376C129.328 208.336 130.758 211.636 133.618 214.276C136.552 216.843 139.962 218.603 143.848 219.556ZM153.198 174.346V189.196L158.258 195.246V203.276C157.012 203.35 156.022 203.46 155.288 203.606C154.555 203.68 153.748 204.046 152.868 204.706C152.062 205.366 151.658 206.32 151.658 207.566C151.658 209.106 153.125 209.876 156.058 209.876C158.992 209.876 161.338 209.29 163.098 208.116C164.932 206.87 166.142 205.256 166.728 203.276H165.958L160.458 196.676V188.646C162.805 188.646 164.492 188.683 165.518 188.756V167.746C165.518 167.16 165.115 166.683 164.308 166.316C163.502 165.876 162.768 165.656 162.108 165.656C159.395 165.656 157.232 166.426 155.618 167.966C154.005 169.433 153.198 171.56 153.198 174.346Z" fill="black"/>
</g>
<defs>
<filter id="filter0_d_108_4" x="-4" y="0" width="258" height="383" filterUnits="userSpaceOnUse" color-interpolation-filters="sRGB">
<feFlood flood-opacity="0" result="BackgroundImageFix"/>
<feColorMatrix in="SourceAlpha" type="matrix" values="0 0 0 0 0 0 0 0 0 0 0 0 0 0 0 0 0 0 127 0" result="hardAlpha"/>
<feOffset dy="4"/>
<feGaussianBlur stdDeviation="2"/>
<feComposite in2="hardAlpha" operator="out"/>
<feColorMatrix type="matrix" values="0 0 0 0 0 0 0 0 0 0 0 0 0 0 0 0 0 0 0.25 0"/>
<feBlend mode="normal" in2="BackgroundImageFix" result="effect1_dropShadow_108_4"/>
<feBlend mode="normal" in="SourceGraphic" in2="effect1_dropShadow_108_4" result="shape"/>
</filter>
<clipPath id="clip0_108_4">
<rect width="250" height="375" fill="white"/>
</clipPath>
</defs>
</svg>
