<svg width="250" height="375" viewBox="0 0 250 375" fill="none" xmlns="http://www.w3.org/2000/svg">
<g clip-path="url(#clip0_108_6)">
<g filter="url(#filter0_d_108_6)">
<rect width="250" height="375" rx="56" fill="#D9D9D9"/>
<rect x="8" y="8" width="234" height="359" rx="48" stroke="black" stroke-width="16"/>
</g>
<rect x="204.226" y="8" width="37.7736" height="37.3133" fill="#D9D9D9" stroke="black" stroke-width="16"/>
<rect x="8" y="329.687" width="37.7736" height="37.3133" fill="#D9D9D9" stroke="black" stroke-width="16"/>
<path d="M175.682 203.491C172.895 203.491 171.062 204.041 170.182 205.141C169.375 206.167 168.972 207.744 168.972 209.871V210.971C168.825 215.444 167.359 219.257 164.572 222.411C159.585 228.204 152.435 231.101 143.122 231.101C135.862 231.101 129.629 228.681 124.422 223.841C122.882 225.381 120.865 226.737 118.372 227.911C115.879 229.157 113.605 229.781 111.552 229.781L106.052 223.181L104.182 220.321C105.429 219.514 106.052 217.864 106.052 215.371V195.351H116.502L111.112 187.761V146.181H159.072L165.672 152.781V168.291H137.072V173.461C143.672 173.754 149.392 175.294 154.232 178.081C159.072 180.867 162.775 184.497 165.342 188.971C166.295 188.897 167.909 188.861 170.182 188.861L175.682 195.461V203.491ZM145.322 192.491C146.055 192.051 146.935 191.171 147.962 189.851H149.722L151.482 191.831L153.352 189.851H155.222C156.249 191.171 157.129 192.051 157.862 192.491L158.852 191.391C159.145 191.097 159.365 190.914 159.512 190.841C158.412 187.027 155.809 183.727 151.702 180.941C147.595 178.081 142.022 176.651 134.982 176.651C133.589 176.651 131.792 176.907 129.592 177.421L128.492 177.751V158.611H157.092V149.261H114.192V185.781H120.902C123.982 184.387 127.062 183.691 130.142 183.691C136.375 183.691 140.262 185.744 141.802 189.851C143.195 190.437 144.369 191.317 145.322 192.491ZM135.642 191.721V194.361C138.062 194.361 139.822 195.167 140.922 196.781C142.095 198.321 142.682 199.861 142.682 201.401V202.171C142.682 204.957 141.655 207.414 139.602 209.541C137.549 211.667 134.505 212.731 130.472 212.731C126.512 212.731 123.139 211.557 120.352 209.211C117.639 206.864 116.099 203.271 115.732 198.431H109.242V214.161C109.242 217.387 108.875 219.257 108.142 219.771C109.462 219.624 111.295 218.817 113.642 217.351C116.062 215.811 117.675 214.491 118.482 213.391C122.149 216.397 125.265 218.524 127.832 219.771C130.472 221.017 133.735 221.641 137.622 221.641C143.635 221.641 148.842 220.247 153.242 217.461C157.715 214.601 160.062 210.421 160.282 204.921V203.491C160.282 197.404 162.665 194.361 167.432 194.361V191.721C164.279 191.721 161.969 192.564 160.502 194.251C159.915 194.984 159.365 195.791 158.852 196.671C157.092 196.231 155.405 195.131 153.792 193.371L151.482 195.681L149.282 193.371C147.815 194.984 146.165 196.084 144.332 196.671C143.452 195.351 142.829 194.507 142.462 194.141C140.995 192.527 138.722 191.721 135.642 191.721ZM132.892 193.701C131.132 193.994 129.372 194.581 127.612 195.461H118.922L124.312 201.951V205.361L124.642 208.441C126.109 209.174 128.125 209.541 130.692 209.541C135.752 209.541 138.649 207.524 139.382 203.491H138.392L132.892 196.891V193.701Z" fill="black"/>
</g>
<defs>
<filter id="filter0_d_108_6" x="-4" y="0" width="258" height="383" filterUnits="userSpaceOnUse" color-interpolation-filters="sRGB">
<feFlood flood-opacity="0" result="BackgroundImageFix"/>
<feColorMatrix in="SourceAlpha" type="matrix" values="0 0 0 0 0 0 0 0 0 0 0 0 0 0 0 0 0 0 127 0" result="hardAlpha"/>
<feOffset dy="4"/>
<feGaussianBlur stdDeviation="2"/>
<feComposite in2="hardAlpha" operator="out"/>
<feColorMatrix type="matrix" values="0 0 0 0 0 0 0 0 0 0 0 0 0 0 0 0 0 0 0.25 0"/>
<feBlend mode="normal" in2="BackgroundImageFix" result="effect1_dropShadow_108_6"/>
<feBlend mode="normal" in="SourceGraphic" in2="effect1_dropShadow_108_6" result="shape"/>
</filter>
<clipPath id="clip0_108_6">
<rect width="250" height="375" fill="white"/>
</clipPath>
</defs>
</svg>
