<svg width="250" height="375" viewBox="0 0 250 375" fill="none" xmlns="http://www.w3.org/2000/svg">
<g clip-path="url(#clip0_106_12)">
<g filter="url(#filter0_d_106_12)">
<rect width="250" height="375" rx="56" fill="#D9D9D9"/>
<rect x="8" y="8" width="234" height="359" rx="48" stroke="black" stroke-width="16"/>
</g>
<rect x="204.226" y="8" width="37.7736" height="37.3133" fill="#D9D9D9" stroke="black" stroke-width="16"/>
<rect x="8" y="329.687" width="37.7736" height="37.3133" fill="#D9D9D9" stroke="black" stroke-width="16"/>
<path d="M157.271 210.201V211.301C157.271 215.114 156.354 218.377 154.521 221.091C152.761 223.804 150.341 225.857 147.261 227.251C141.614 229.817 135.051 231.101 127.571 231.101C118.404 231.101 110.484 229.121 103.811 225.161C100.364 223.181 97.5774 220.431 95.4508 216.911C93.3974 213.391 92.3708 209.321 92.3708 204.701V203.381H91.1608L85.6608 196.781V188.861C89.4741 188.861 92.0774 189.044 93.4708 189.411C94.1308 185.524 95.9274 182.114 98.8608 179.181C97.3208 177.714 96.2574 176.064 95.6708 174.231C95.1574 172.397 94.9008 169.647 94.9008 165.981V164.661C94.9008 159.821 96.2574 155.861 98.9708 152.781C101.684 149.701 104.947 147.611 108.761 146.511C112.647 145.411 116.864 144.861 121.411 144.861C126.031 144.861 130.174 145.337 133.841 146.291C137.581 147.244 141.027 148.711 144.181 150.691C147.407 152.597 149.937 155.347 151.771 158.941C153.677 162.461 154.631 166.567 154.631 171.261V172.581C154.631 176.101 154.337 178.777 153.751 180.611C153.164 182.444 152.101 184.057 150.561 185.451C152.101 187.137 153.054 188.311 153.421 188.971C154.447 188.897 156.134 188.861 158.481 188.861L163.981 195.461V203.381C161.121 203.381 159.287 203.931 158.481 205.031C157.674 206.131 157.271 207.854 157.271 210.201ZM137.801 192.601C138.607 192.087 139.487 191.171 140.441 189.851H143.301C144.254 191.244 145.134 192.161 145.941 192.601C146.381 192.014 146.894 191.501 147.481 191.061C146.894 186.147 144.511 182.224 140.331 179.291C144.144 175.991 146.051 171.554 146.051 165.981V164.661C146.051 160.627 144.767 157.291 142.201 154.651C139.634 151.937 136.627 150.104 133.181 149.151C129.807 148.197 126.104 147.721 122.071 147.721C118.037 147.721 114.297 148.197 110.851 149.151C107.477 150.104 104.471 151.937 101.831 154.651C99.2641 157.291 97.9808 160.627 97.9808 164.661V165.981C97.9808 171.921 99.7774 176.431 103.371 179.511C99.4108 182.371 97.1741 186.221 96.6608 191.061C97.1741 191.501 97.6874 192.014 98.2008 192.601C98.9341 192.014 99.8141 191.097 100.841 189.851H103.701C104.581 191.244 105.461 192.161 106.341 192.601C107.587 191.061 109.164 189.997 111.071 189.411C112.611 185.451 116.277 183.471 122.071 183.471C127.864 183.471 131.531 185.451 133.071 189.411C134.831 189.924 136.407 190.987 137.801 192.601ZM148.581 204.591V203.601C148.581 197.367 150.964 194.251 155.731 194.251V191.611C152.724 191.611 150.487 192.344 149.021 193.811C148.287 194.544 147.554 195.497 146.821 196.671C145.281 196.377 143.667 195.131 141.981 192.931C140.661 194.837 139.011 196.084 137.031 196.671C136.077 195.131 135.014 193.957 133.841 193.151C132.741 192.344 131.824 191.904 131.091 191.831C130.431 191.684 129.477 191.611 128.231 191.611V194.251C130.504 194.251 132.154 194.984 133.181 196.451C134.207 197.917 134.721 199.311 134.721 200.631C134.721 208.404 130.504 212.291 122.071 212.291C113.637 212.291 109.421 208.404 109.421 200.631C109.421 199.237 109.934 197.844 110.961 196.451C111.987 194.984 113.637 194.251 115.911 194.251V191.611C114.591 191.611 113.564 191.684 112.831 191.831C112.171 191.904 111.291 192.344 110.191 193.151C109.091 193.884 108.064 195.057 107.111 196.671C105.351 196.377 103.701 195.131 102.161 192.931C100.694 194.837 99.0808 196.084 97.3208 196.671C96.3674 195.131 95.3408 193.957 94.2408 193.151C93.1408 192.344 92.2241 191.904 91.4908 191.831C90.7574 191.684 89.7308 191.611 88.4108 191.611V194.251C93.1774 194.251 95.5608 197.367 95.5608 203.601V204.591C95.5608 208.624 96.9541 211.961 99.7408 214.601C102.527 217.241 105.791 219.074 109.531 220.101C113.344 221.054 117.524 221.531 122.071 221.531C126.617 221.531 130.761 221.054 134.501 220.101C138.314 219.074 141.614 217.241 144.401 214.601C147.187 211.961 148.581 208.624 148.581 204.591ZM132.851 167.521C132.851 174.414 129.221 177.861 121.961 177.861C114.774 177.861 111.181 174.414 111.181 167.521C111.181 160.481 114.774 156.961 121.961 156.961C129.221 156.961 132.851 160.481 132.851 167.521ZM117.891 207.781V208.661C119.064 209.027 120.457 209.211 122.071 209.211C127.497 209.211 130.651 207.267 131.531 203.381H130.761L125.261 196.781V193.261C124.527 193.334 123.757 193.517 122.951 193.811L124.381 195.461V203.381C120.054 203.527 117.891 204.994 117.891 207.781ZM129.661 167.961V166.861C128.781 166.714 128.084 166.641 127.571 166.641C122.437 166.641 119.871 168.914 119.871 173.461V174.781C120.311 174.854 121.044 174.891 122.071 174.891C124.931 174.891 126.911 174.267 128.011 173.021C129.111 171.774 129.661 170.087 129.661 167.961Z" fill="black"/>
</g>
<defs>
<filter id="filter0_d_106_12" x="-4" y="0" width="258" height="383" filterUnits="userSpaceOnUse" color-interpolation-filters="sRGB">
<feFlood flood-opacity="0" result="BackgroundImageFix"/>
<feColorMatrix in="SourceAlpha" type="matrix" values="0 0 0 0 0 0 0 0 0 0 0 0 0 0 0 0 0 0 127 0" result="hardAlpha"/>
<feOffset dy="4"/>
<feGaussianBlur stdDeviation="2"/>
<feComposite in2="hardAlpha" operator="out"/>
<feColorMatrix type="matrix" values="0 0 0 0 0 0 0 0 0 0 0 0 0 0 0 0 0 0 0.25 0"/>
<feBlend mode="normal" in2="BackgroundImageFix" result="effect1_dropShadow_106_12"/>
<feBlend mode="normal" in="SourceGraphic" in2="effect1_dropShadow_106_12" result="shape"/>
</filter>
<clipPath id="clip0_106_12">
<rect width="250" height="375" fill="white"/>
</clipPath>
</defs>
</svg>
