<svg width="250" height="375" viewBox="0 0 250 375" fill="none" xmlns="http://www.w3.org/2000/svg">
<g clip-path="url(#clip0_106_13)">
<g filter="url(#filter0_d_106_13)">
<rect width="250" height="375" rx="56" fill="#D9D9D9"/>
<rect x="8" y="8" width="234" height="359" rx="48" stroke="black" stroke-width="16"/>
</g>
<rect x="204.227" y="8" width="37.7736" height="37.3133" fill="#D9D9D9" stroke="black" stroke-width="16"/>
<rect x="8" y="329.687" width="37.7736" height="37.3133" fill="#D9D9D9" stroke="black" stroke-width="16"/>
<path d="M130.701 215.3V223.22C130.701 225.347 129.747 226.923 127.841 227.95C125.934 229.05 123.844 229.6 121.571 229.6C118.271 229.6 115.191 228.06 112.331 224.98C109.471 221.973 108.041 219.187 108.041 216.62V208.7C108.041 205.84 109.727 203.933 113.101 202.98L108.151 196.93V194.18C108.151 190.953 109.141 187.837 111.121 184.83C113.174 181.75 115.411 179.22 117.831 177.24C124.211 172.033 127.401 167.927 127.401 164.92C127.327 164.847 126.961 164.81 126.301 164.81C123.514 164.81 121.204 165.873 119.371 168C117.537 170.053 116.364 172.107 115.851 174.16L115.191 177.24H102.211L96.7107 169.54V146H110.351L112.771 148.97C116.731 146.11 121.571 144.68 127.291 144.68C134.697 144.68 141.187 147.137 146.761 152.05C152.407 156.963 155.231 163.307 155.231 171.08C155.231 174.747 154.387 178.047 152.701 180.98C151.014 183.84 148.961 186.15 146.541 187.91C144.121 189.67 141.701 191.247 139.281 192.64C136.934 194.033 134.917 195.39 133.231 196.71C131.544 198.03 130.701 199.387 130.701 200.78V203.53H122.561C124.907 204.63 126.851 206.243 128.391 208.37C129.931 210.497 130.701 212.807 130.701 215.3ZM120.801 155.24C124.394 155.24 126.924 156.34 128.391 158.54C129.857 160.667 130.591 162.757 130.591 164.81C130.591 166.863 129.894 168.843 128.501 170.75C127.181 172.583 125.567 174.343 123.661 176.03C121.754 177.717 119.847 179.44 117.941 181.2C113.321 185.6 111.011 189.927 111.011 194.18H122.231C122.231 190.733 125.091 187.433 130.811 184.28C133.231 183.033 135.614 181.677 137.961 180.21C140.307 178.67 142.324 176.543 144.011 173.83C145.697 171.117 146.541 167.89 146.541 164.15C146.541 159.163 144.671 155.203 140.931 152.27C137.264 149.263 132.681 147.76 127.181 147.76C119.627 147.76 113.247 150.803 108.041 156.89H107.601V149.08H99.2407V167.56H107.381C109.361 159.347 113.834 155.24 120.801 155.24ZM111.011 215.08C111.011 218.38 113.064 220.03 117.171 220.03C121.277 220.03 123.331 218.38 123.331 215.08V210.24C123.331 206.94 121.277 205.29 117.171 205.29C113.064 205.29 111.011 206.94 111.011 210.24V215.08Z" fill="black"/>
</g>
<defs>
<filter id="filter0_d_106_13" x="-4" y="0" width="258" height="383" filterUnits="userSpaceOnUse" color-interpolation-filters="sRGB">
<feFlood flood-opacity="0" result="BackgroundImageFix"/>
<feColorMatrix in="SourceAlpha" type="matrix" values="0 0 0 0 0 0 0 0 0 0 0 0 0 0 0 0 0 0 127 0" result="hardAlpha"/>
<feOffset dy="4"/>
<feGaussianBlur stdDeviation="2"/>
<feComposite in2="hardAlpha" operator="out"/>
<feColorMatrix type="matrix" values="0 0 0 0 0 0 0 0 0 0 0 0 0 0 0 0 0 0 0.25 0"/>
<feBlend mode="normal" in2="BackgroundImageFix" result="effect1_dropShadow_106_13"/>
<feBlend mode="normal" in="SourceGraphic" in2="effect1_dropShadow_106_13" result="shape"/>
</filter>
<clipPath id="clip0_106_13">
<rect width="250" height="375" fill="white"/>
</clipPath>
</defs>
</svg>
