<svg width="250" height="375" viewBox="0 0 250 375" fill="none" xmlns="http://www.w3.org/2000/svg">
<g clip-path="url(#clip0_106_14)">
<g filter="url(#filter0_d_106_14)">
<rect width="250" height="375" rx="56" fill="#D9D9D9"/>
<rect x="8" y="8" width="234" height="359" rx="48" stroke="black" stroke-width="16"/>
</g>
<rect x="204.226" y="8" width="37.7736" height="37.3133" fill="#D9D9D9" stroke="black" stroke-width="16"/>
<rect x="8" y="329.687" width="37.7736" height="37.3133" fill="#D9D9D9" stroke="black" stroke-width="16"/>
<path d="M39.1146 84.37C40.6746 85.95 41.4546 87.91 41.4546 90.25C41.4546 92.59 40.8346 94.34 39.5946 95.5C38.3746 96.64 36.6946 97.21 34.5546 97.21H33.0546V97.63C32.2746 97.63 31.7646 97.77 31.5246 98.05C31.3046 98.33 31.1946 98.78 31.1946 99.4V99.85C31.3346 99.85 31.4546 99.77 31.5546 99.61L32.3946 100.15L33.8946 101.95C33.7746 102.89 33.4346 103.6 32.8746 104.08C32.3146 104.56 31.6346 104.8 30.8346 104.8C30.0546 104.8 29.2846 104.53 28.5246 103.99C27.7646 104.53 26.9746 104.8 26.1546 104.8C25.3546 104.8 24.4346 104.32 23.3946 103.36C22.3546 102.4 21.7746 101.33 21.6546 100.15L22.4946 99.61C22.5746 99.79 22.7646 99.88 23.0646 99.88C23.9246 99.88 24.3546 99.13 24.3546 97.63H23.9946L22.4946 95.83V93.64C23.3146 93.64 23.8946 93.67 24.2346 93.73V88.03H23.3946L21.8946 86.23V82H32.6646C35.4046 82 37.5546 82.79 39.1146 84.37ZM25.9146 94.63C26.1146 94.51 26.3546 94.27 26.6346 93.91H27.4146C27.6746 94.27 27.9146 94.51 28.1346 94.63C28.4746 94.17 28.8746 93.89 29.3346 93.79C29.8146 93.69 30.5546 93.64 31.5546 93.64L32.3346 94.57H32.7846C36.9646 94.57 39.0546 92.53 39.0546 88.45C39.0546 87.21 38.7146 86.05 38.0346 84.97C37.6146 84.33 36.9246 83.82 35.9646 83.44C35.0246 83.04 33.8546 82.84 32.4546 82.84H22.7346V85.39H25.1346V93.97C25.4146 94.11 25.6746 94.33 25.9146 94.63ZM28.9746 85.39H30.8646C33.7246 85.39 35.1546 86.5 35.1546 88.72C35.1546 89.9 34.8046 90.87 34.1046 91.63C33.4246 92.39 32.3546 92.77 30.8946 92.77H28.9746V85.39ZM27.1146 101.17C27.8346 101.79 28.6246 102.1 29.4846 102.1C30.3646 102.1 31.0046 101.6 31.4046 100.6C31.2646 100.68 31.1046 100.72 30.9246 100.72C29.5246 100.72 28.8246 99.69 28.8246 97.63C28.8246 95.95 29.4846 95.11 30.8046 95.11V94.36C30.4246 94.36 30.1346 94.38 29.9346 94.42C29.7346 94.44 29.4846 94.56 29.1846 94.78C28.8846 95 28.6146 95.33 28.3746 95.77C27.8946 95.67 27.4446 95.32 27.0246 94.72C26.6046 95.26 26.1546 95.61 25.6746 95.77C25.4146 95.33 25.1346 95 24.8346 94.78C24.5346 94.56 24.2846 94.44 24.0846 94.42C23.8846 94.38 23.6046 94.36 23.2446 94.36V95.11C24.5646 95.11 25.2246 95.95 25.2246 97.63C25.2246 99.15 24.9046 100.1 24.2646 100.48C23.9646 100.64 23.5846 100.72 23.1246 100.72L22.6446 100.6C23.0446 101.6 23.6746 102.1 24.5346 102.1C25.4146 102.1 26.2146 101.79 26.9346 101.17H27.1146ZM32.2746 88H31.3146V91.9C33.3146 91.74 34.3146 90.68 34.3146 88.72L34.2846 88.27C33.9046 88.09 33.2346 88 32.2746 88ZM45.7212 82H60.4212L61.9212 83.8V87.97H60.3612L61.4712 93.67C61.6512 93.65 61.9312 93.64 62.3112 93.64L63.8112 95.44L64.1712 97.6C63.0912 97.6 62.5512 98.08 62.5512 99.04C62.5512 99.62 62.6212 99.91 62.7612 99.91C63.1012 99.91 63.2912 99.81 63.3312 99.61L64.2912 100.18L65.7912 101.98C65.7912 102.94 65.5512 103.65 65.0712 104.11C64.6112 104.57 64.0112 104.8 63.2712 104.8C62.5512 104.8 61.7212 104.55 60.7812 104.05C60.0412 104.55 59.3212 104.8 58.6212 104.8C57.5212 104.8 56.4812 104.31 55.5012 103.33C54.5412 102.35 53.8912 101.3 53.5512 100.18L54.2712 99.61C54.4312 99.81 54.6612 99.91 54.9612 99.91C55.6212 99.91 55.9512 99.52 55.9512 98.74L55.8612 98.05C55.4812 97.85 55.0112 97.75 54.4512 97.75C53.9112 97.75 53.3912 97.91 52.8912 98.23C52.3912 98.55 52.0512 99.01 51.8712 99.61L52.5912 100.18L54.0912 101.98C53.8112 102.92 53.3412 103.62 52.6812 104.08C52.0412 104.56 51.3512 104.8 50.6112 104.8C49.8912 104.8 49.1312 104.55 48.3312 104.05C47.4312 104.55 46.6012 104.8 45.8412 104.8C44.8012 104.8 43.8812 104.3 43.0812 103.3C42.3012 102.3 41.9112 101.26 41.9112 100.18L42.8412 99.61C42.8812 99.81 43.0712 99.91 43.4112 99.91C43.7712 99.91 44.1112 99.67 44.4312 99.19C44.7712 98.71 44.9812 98.18 45.0612 97.6L43.4712 95.8L43.8312 93.64C44.6912 93.64 45.3412 93.7 45.7812 93.82L46.9812 87.7L45.7212 86.17V82ZM56.8512 94.66C57.0312 94.52 57.2312 94.27 57.4512 93.91H58.2312C58.5512 94.29 58.8412 94.54 59.1012 94.66C59.1812 94.52 59.3412 94.35 59.5812 94.15L57.8712 85.3H59.5812V82.84H46.5612V85.3H48.2712L46.5312 94.15C46.7712 94.33 46.9512 94.5 47.0712 94.66C47.3112 94.52 47.5912 94.27 47.9112 93.91H48.6912C48.8512 94.29 49.0212 94.54 49.2012 94.66C49.9612 93.9 51.2412 93.52 53.0412 93.52C54.8612 93.52 56.1312 93.9 56.8512 94.66ZM59.1912 101.17C60.0712 101.85 60.9112 102.19 61.7112 102.19C62.5312 102.19 63.0712 101.67 63.3312 100.63C63.2312 100.71 63.0912 100.75 62.9112 100.75C62.1512 100.75 61.5012 100.38 60.9612 99.64C60.4412 98.88 60.1812 98.16 60.1812 97.48C60.1812 96.06 60.7312 95.27 61.8312 95.11L61.7112 94.39C61.3312 94.39 61.0412 94.41 60.8412 94.45C60.6612 94.47 60.4412 94.59 60.1812 94.81C59.9212 95.01 59.7012 95.33 59.5212 95.77C59.0612 95.69 58.5412 95.35 57.9612 94.75C57.8212 95.01 57.6512 95.23 57.4512 95.41C57.2712 95.57 57.0612 95.69 56.8212 95.77C56.0412 94.81 54.7812 94.33 53.0412 94.33C51.3012 94.33 50.0612 94.81 49.3212 95.77C48.8612 95.69 48.4712 95.35 48.1512 94.75C47.6712 95.27 47.1712 95.61 46.6512 95.77C46.4712 95.33 46.2412 95.01 45.9612 94.81C45.7012 94.59 45.4712 94.47 45.2712 94.45C45.0712 94.41 44.7912 94.39 44.4312 94.39L44.3112 95.11C44.8712 95.19 45.2812 95.43 45.5412 95.83C45.8212 96.21 45.9612 96.75 45.9612 97.45C45.9612 98.15 45.6912 98.88 45.1512 99.64C44.6312 100.38 44.0012 100.75 43.2612 100.75L42.8412 100.63C43.1012 101.67 43.6212 102.19 44.4012 102.19C45.2012 102.19 46.0512 101.85 46.9512 101.17H47.1312C47.8112 101.85 48.4912 102.19 49.1712 102.19C50.0712 102.19 50.8512 101.67 51.5112 100.63C51.3512 100.71 51.1712 100.75 50.9712 100.75C49.8512 100.75 49.2912 100.17 49.2912 99.01C49.2912 97.85 49.6712 96.94 50.4312 96.28C51.1912 95.6 52.0712 95.26 53.0712 95.26C54.0712 95.26 54.9512 95.6 55.7112 96.28C56.4712 96.94 56.8512 97.85 56.8512 99.01C56.8512 100.17 56.2912 100.75 55.1712 100.75L54.6012 100.63C55.2412 101.67 56.0312 102.19 56.9712 102.19C57.6712 102.19 58.3512 101.85 59.0112 101.17H59.1912ZM50.3412 92.8L51.9612 85.3H54.1812L55.8612 92.8H50.3412ZM54.0312 88.45L53.2512 92.02H54.8412L54.0312 88.45ZM88.4311 88.03H86.6311V93.64H86.8411L88.3411 95.44V97.63C87.5811 97.63 87.0911 97.77 86.8711 98.05C86.6511 98.33 86.5411 98.77 86.5411 99.37V99.76C86.5411 100.8 86.2811 101.69 85.7611 102.43C85.2611 103.17 84.5811 103.73 83.7211 104.11C82.1011 104.81 80.2611 105.16 78.2011 105.16C75.3211 105.16 72.9611 104.47 71.1211 103.09C69.2811 101.73 68.3611 100.02 68.3611 97.96V97.63H68.0611L66.5611 95.83V93.64C67.3811 93.64 67.9611 93.67 68.3011 93.73V88.03H68.0611L66.5611 86.23V82H75.6811L77.1811 83.8V88.03H75.3811V93.64H75.6511L77.1511 95.44V97.63C76.8111 97.65 76.5411 97.68 76.3411 97.72C76.1411 97.74 75.9211 97.84 75.6811 98.02C75.4611 98.2 75.3511 98.46 75.3511 98.8C75.3511 99.22 75.7511 99.43 76.5511 99.43C77.3511 99.43 77.9911 99.27 78.4711 98.95C78.9711 98.61 79.3011 98.17 79.4611 97.63H79.2511L77.7511 95.83V93.64C78.6111 93.64 79.2111 93.67 79.5511 93.73V88.03H79.3111L77.8111 86.23V82H86.9311L88.4311 83.8V88.03ZM73.2211 102.07C74.2811 102.33 75.4411 102.46 76.7011 102.46C77.9611 102.46 79.1211 102.33 80.1811 102.07C81.2411 101.81 82.1611 101.33 82.9411 100.63C83.7411 99.91 84.1411 99.01 84.1411 97.93V97.63C84.1411 95.97 84.7911 95.14 86.0911 95.14V94.42C85.7311 94.42 85.4511 94.44 85.2511 94.48C85.0711 94.5 84.8211 94.62 84.5011 94.84C84.2011 95.04 83.9211 95.35 83.6611 95.77C83.2211 95.67 82.7811 95.33 82.3411 94.75C81.9811 95.27 81.5211 95.61 80.9611 95.77C80.7211 95.35 80.4511 95.04 80.1511 94.84C79.8511 94.62 79.6011 94.5 79.4011 94.48C79.2011 94.44 78.9211 94.42 78.5611 94.42V95.14C79.2211 95.14 79.6911 95.33 79.9711 95.71C80.2511 96.09 80.3911 96.47 80.3911 96.85C80.3911 97.93 80.0411 98.78 79.3411 99.4C78.6411 100 77.7611 100.3 76.7011 100.3C75.6411 100.3 74.7611 100 74.0611 99.4C73.3611 98.78 73.0111 97.93 73.0111 96.85C73.0111 96.47 73.1511 96.09 73.4311 95.71C73.7111 95.33 74.1811 95.14 74.8411 95.14V94.42C74.4811 94.42 74.2011 94.44 74.0011 94.48C73.8011 94.5 73.5511 94.62 73.2511 94.84C72.9511 95.04 72.6811 95.35 72.4411 95.77C71.9211 95.67 71.4611 95.33 71.0611 94.75C70.6611 95.27 70.2211 95.61 69.7411 95.77C69.4811 95.35 69.1911 95.04 68.8711 94.84C68.5711 94.62 68.3211 94.5 68.1211 94.48C67.9411 94.44 67.6711 94.42 67.3111 94.42V95.14C68.6111 95.14 69.2611 95.97 69.2611 97.63V97.93C69.2611 99.01 69.6511 99.91 70.4311 100.63C71.2311 101.33 72.1611 101.81 73.2211 102.07ZM81.2311 94.63C81.4311 94.51 81.6711 94.27 81.9511 93.91H82.7011C82.9611 94.27 83.2111 94.51 83.4511 94.63C83.6711 94.37 83.9311 94.16 84.2311 94V85.39H86.0911V82.84H78.6511V85.39H80.4511V94C80.7311 94.16 80.9911 94.37 81.2311 94.63ZM69.9511 94.63C70.1911 94.49 70.4411 94.25 70.7011 93.91H71.4511C71.7111 94.27 71.9511 94.51 72.1711 94.63C72.3911 94.35 72.6611 94.13 72.9811 93.97V85.39H74.8411V82.84H67.4011V85.39H69.2011V94C69.4611 94.14 69.7111 94.35 69.9511 94.63ZM107.194 98.17L107.254 99.43C107.254 101.31 106.604 102.73 105.304 103.69C104.024 104.67 102.504 105.16 100.744 105.16C100.204 105.16 99.6635 105.09 99.1235 104.95C98.5835 104.81 98.1735 104.66 97.8935 104.5C97.6135 104.36 97.2735 104.17 96.8735 103.93C96.4935 103.71 96.2835 103.59 96.2435 103.57L95.5235 103.15C95.1035 103.57 94.5435 103.95 93.8435 104.29C93.1635 104.63 92.5535 104.8 92.0135 104.8L90.5135 103L89.9735 102.16C90.3335 101.96 90.5135 101.52 90.5135 100.84V95.44H93.9935L95.4935 97.24V98.17L95.6135 99.04C96.0335 99.3 96.6835 99.43 97.5635 99.43C98.4635 99.43 99.0135 99.01 99.2135 98.17C98.8935 98.35 98.6735 98.5 98.5535 98.62L95.6435 95.14L96.1835 94.69C95.3035 94.15 94.6035 93.7 94.0835 93.34C93.5835 92.96 92.9835 92.44 92.2835 91.78C90.8835 90.42 90.1835 88.86 90.1835 87.1C90.1835 85.32 90.8535 83.97 92.1935 83.05C93.5535 82.11 95.1235 81.64 96.9035 81.64C97.8635 81.64 98.7235 81.79 99.4835 82.09C100.244 82.37 100.764 82.66 101.044 82.96L101.464 83.38V82H105.184L106.684 83.8V90.52H103.174L101.674 88.72L101.254 87.34C100.914 87.16 100.514 87.07 100.054 87.07C99.5935 87.07 99.2035 87.23 98.8835 87.55C98.5835 87.87 98.4335 88.31 98.4335 88.87L98.4635 89.14C98.5235 89.2 99.0735 89.48 100.114 89.98C101.174 90.46 102.184 91.04 103.144 91.72C104.104 92.38 104.704 93.04 104.944 93.7C105.244 93.66 105.784 93.64 106.564 93.64L108.064 95.44V97.63C107.484 97.63 107.194 97.81 107.194 98.17ZM91.0835 86.86C91.0835 87.84 91.3335 88.72 91.8335 89.5C92.3535 90.26 92.9135 90.84 93.5135 91.24C94.1135 91.62 94.8835 92.07 95.8235 92.59C96.7635 93.11 97.4235 93.51 97.8035 93.79C98.1635 93.69 98.5235 93.64 98.8835 93.64C99.6635 93.64 100.414 93.94 101.134 94.54L101.674 93.94H102.424C102.684 94.28 102.914 94.51 103.114 94.63C103.354 94.33 103.654 94.1 104.014 93.94C103.594 93.2 102.914 92.53 101.974 91.93C101.034 91.31 100.134 90.83 99.2735 90.49C98.4335 90.15 97.6735 89.69 96.9935 89.11C96.3335 88.51 96.0035 87.83 96.0035 87.07C96.0035 86.57 96.1135 86.11 96.3335 85.69C96.7935 84.85 97.5535 84.43 98.6135 84.43C100.374 84.43 101.624 85.58 102.364 87.88H104.494V82.84H102.214V84.94H102.034C100.734 83.32 99.0335 82.51 96.9335 82.51C95.3535 82.51 93.9835 82.91 92.8235 83.71C91.6635 84.49 91.0835 85.54 91.0835 86.86ZM104.884 97.69L104.824 96.37C104.824 95.53 105.154 95.11 105.814 95.11V94.36C105.434 94.36 105.144 94.38 104.944 94.42C104.764 94.44 104.524 94.56 104.224 94.78C103.924 95 103.644 95.33 103.384 95.77C102.904 95.69 102.464 95.35 102.064 94.75C101.684 95.21 101.284 95.5 100.864 95.62C100.304 94.78 99.5435 94.36 98.5835 94.36C97.9635 94.36 97.3535 94.64 96.7535 95.2L97.2035 95.77C97.5835 95.47 97.9735 95.32 98.3735 95.32C98.7735 95.32 99.1235 95.44 99.4235 95.68C99.7435 95.92 99.9335 96.2 99.9935 96.52C100.074 96.84 100.114 97.2 100.114 97.6C100.114 97.98 100.054 98.35 99.9335 98.71C99.8335 99.07 99.5735 99.43 99.1535 99.79C98.7335 100.13 98.1835 100.3 97.5035 100.3C96.3635 100.3 95.3835 99.96 94.5635 99.28C93.7435 98.6 93.2735 97.61 93.1535 96.31H91.3835V100.54C91.3835 101.36 91.2835 101.86 91.0835 102.04C91.4635 101.98 91.9735 101.75 92.6135 101.35C93.2735 100.95 93.6835 100.6 93.8435 100.3C94.1235 100.48 94.5235 100.73 95.0435 101.05C96.6235 102.03 98.0035 102.52 99.1835 102.52C100.784 102.52 102.134 102.11 103.234 101.29C104.334 100.45 104.884 99.25 104.884 97.69ZM127.361 102.61C127.361 103.31 127.541 103.77 127.901 103.99L127.361 104.8C126.841 104.8 126.291 104.67 125.711 104.41C125.151 104.15 124.711 103.87 124.391 103.57C124.051 103.87 123.471 104.15 122.651 104.41C121.851 104.67 121.091 104.8 120.371 104.8C118.911 104.8 117.721 104.41 116.801 103.63C115.981 104.41 115.041 104.8 113.981 104.8C112.941 104.8 111.971 104.29 111.071 103.27C110.191 102.27 109.681 101.23 109.541 100.15L110.381 99.61C110.481 99.77 110.681 99.85 110.981 99.85C111.781 99.85 112.181 99.11 112.181 97.63H111.881L110.381 95.83V93.64C111.221 93.64 111.811 93.67 112.151 93.73V88.03H111.311L109.811 86.23V82H125.921L127.421 83.8V91.12H123.941L122.441 89.32V88.03H119.231V89.77H121.361L122.861 91.57V95.05H120.611L120.941 95.44V97.63C120.621 97.65 120.361 97.68 120.161 97.72C119.961 97.74 119.751 97.84 119.531 98.02C119.311 98.2 119.201 98.46 119.201 98.8V98.92C119.481 99.02 119.881 99.07 120.401 99.07C120.921 99.07 121.411 98.91 121.871 98.59C122.331 98.27 122.561 97.82 122.561 97.24C122.561 97.14 122.501 96.85 122.381 96.37V95.41H125.861L127.361 97.21V102.61ZM113.801 94.63C114.001 94.51 114.241 94.27 114.521 93.91H115.331C115.591 94.27 115.821 94.51 116.021 94.63C116.241 94.35 116.511 94.13 116.831 93.97V92.41H120.521V90.61H116.831V85.39H123.281V88.48H125.081V82.84H110.651V85.39H113.051V94C113.311 94.14 113.561 94.35 113.801 94.63ZM123.371 97.36C123.371 98.16 123.061 98.79 122.441 99.25C121.841 99.71 121.101 99.94 120.221 99.94C119.341 99.94 118.551 99.69 117.851 99.19C117.171 98.67 116.831 97.89 116.831 96.85C116.831 96.49 116.971 96.12 117.251 95.74C117.551 95.34 118.021 95.14 118.661 95.14V94.42C118.301 94.42 118.021 94.44 117.821 94.48C117.641 94.5 117.401 94.62 117.101 94.84C116.801 95.04 116.531 95.35 116.291 95.77C115.811 95.67 115.351 95.33 114.911 94.75C114.551 95.27 114.101 95.61 113.561 95.77C113.301 95.35 113.021 95.04 112.721 94.84C112.421 94.62 112.171 94.5 111.971 94.48C111.791 94.44 111.521 94.42 111.161 94.42V95.14C111.841 95.14 112.331 95.38 112.631 95.86C112.951 96.32 113.111 96.97 113.111 97.81C113.111 98.65 112.971 99.34 112.691 99.88C112.431 100.42 111.871 100.69 111.011 100.69L110.591 100.63C110.951 101.65 111.581 102.16 112.481 102.16C113.381 102.16 114.261 101.71 115.121 100.81H115.391L115.511 100.93C116.471 101.73 117.631 102.13 118.991 102.13C120.371 102.13 121.671 101.66 122.891 100.72C123.071 100.9 123.441 101.16 124.001 101.5C124.561 101.82 125.001 102.01 125.321 102.07C125.141 101.87 125.051 101.35 125.051 100.51V96.31H123.221C123.321 96.65 123.371 97 123.371 97.36ZM155.011 94.66C155.231 94.52 155.471 94.27 155.731 93.91H156.511C156.771 94.29 157.011 94.54 157.231 94.66C157.591 94.2 158.001 93.92 158.461 93.82C158.941 93.7 159.671 93.64 160.651 93.64L162.151 95.44V97.6C161.371 97.6 160.871 97.75 160.651 98.05C160.431 98.35 160.321 98.82 160.321 99.46V99.76C160.321 100.8 160.071 101.69 159.571 102.43C159.091 103.17 158.431 103.73 157.591 104.11C156.051 104.81 154.261 105.16 152.221 105.16C149.721 105.16 147.561 104.62 145.741 103.54C144.801 103 144.041 102.25 143.461 101.29C142.901 100.33 142.621 99.22 142.621 97.96V97.6H142.291L140.791 95.8V93.64C141.651 93.64 142.261 93.67 142.621 93.73V87.07C142.621 84.73 143.841 83.14 146.281 82.3C147.521 81.86 148.881 81.64 150.361 81.64C151.841 81.64 153.131 81.78 154.231 82.06C155.331 82.32 156.341 82.73 157.261 83.29C158.201 83.83 158.941 84.58 159.481 85.54C160.021 86.5 160.291 87.61 160.291 88.87V91.9H154.471L152.971 90.1V87.94L152.941 87.46C152.761 87.4 152.501 87.37 152.161 87.37C150.681 87.37 149.941 88.16 149.941 89.74V93.76L151.351 95.44V97.6C150.171 97.64 149.581 98.04 149.581 98.8V99.04C149.901 99.14 150.281 99.19 150.721 99.19C152.201 99.19 153.061 98.66 153.301 97.6H153.091L151.591 95.8V93.64C152.271 93.64 152.771 93.65 153.091 93.67C153.871 93.73 154.511 94.06 155.011 94.66ZM144.211 94.66C144.411 94.5 144.651 94.25 144.931 93.91H145.711C145.951 94.29 146.191 94.54 146.431 94.66C146.731 94.28 147.121 94.01 147.601 93.85V87.91C147.601 86.87 147.871 86.07 148.411 85.51C148.951 84.95 149.711 84.67 150.691 84.67C151.671 84.67 152.441 84.95 153.001 85.51C153.561 86.05 153.841 86.85 153.841 87.91V89.26H157.951V87.13C157.951 86.03 157.571 85.12 156.811 84.4C156.071 83.68 155.181 83.19 154.141 82.93C153.101 82.65 152.031 82.51 150.931 82.51C149.831 82.51 148.871 82.59 148.051 82.75C147.251 82.91 146.491 83.16 145.771 83.5C145.071 83.84 144.511 84.32 144.091 84.94C143.671 85.56 143.461 86.29 143.461 87.13V94.03C143.721 94.17 143.971 94.38 144.211 94.66ZM157.951 97.93V97.66C157.951 95.96 158.601 95.11 159.901 95.11V94.39C159.081 94.39 158.471 94.59 158.071 94.99C157.871 95.19 157.671 95.45 157.471 95.77C157.051 95.69 156.611 95.35 156.151 94.75C155.791 95.27 155.341 95.61 154.801 95.77C154.541 95.35 154.251 95.03 153.931 94.81C153.631 94.59 153.381 94.47 153.181 94.45C153.001 94.41 152.741 94.39 152.401 94.39V95.11C153.021 95.11 153.471 95.31 153.751 95.71C154.031 96.11 154.171 96.49 154.171 96.85C154.171 98.97 153.021 100.03 150.721 100.03C148.421 100.03 147.271 98.97 147.271 96.85C147.271 96.47 147.411 96.09 147.691 95.71C147.971 95.31 148.421 95.11 149.041 95.11V94.39C148.681 94.39 148.401 94.41 148.201 94.45C148.021 94.47 147.781 94.59 147.481 94.81C147.181 95.01 146.901 95.33 146.641 95.77C146.161 95.69 145.711 95.35 145.291 94.75C144.891 95.27 144.451 95.61 143.971 95.77C143.711 95.35 143.431 95.03 143.131 94.81C142.831 94.59 142.581 94.47 142.381 94.45C142.181 94.41 141.901 94.39 141.541 94.39V95.11C142.841 95.11 143.491 95.96 143.491 97.66V97.93C143.491 99.03 143.871 99.94 144.631 100.66C145.391 101.38 146.281 101.88 147.301 102.16C148.341 102.42 149.481 102.55 150.721 102.55C151.961 102.55 153.091 102.42 154.111 102.16C155.151 101.88 156.051 101.38 156.811 100.66C157.571 99.94 157.951 99.03 157.951 97.93ZM166.424 82H181.124L182.624 83.8V87.97H181.064L182.174 93.67C182.354 93.65 182.634 93.64 183.014 93.64L184.514 95.44L184.874 97.6C183.794 97.6 183.254 98.08 183.254 99.04C183.254 99.62 183.324 99.91 183.464 99.91C183.804 99.91 183.994 99.81 184.034 99.61L184.994 100.18L186.494 101.98C186.494 102.94 186.254 103.65 185.774 104.11C185.314 104.57 184.714 104.8 183.974 104.8C183.254 104.8 182.424 104.55 181.484 104.05C180.744 104.55 180.024 104.8 179.324 104.8C178.224 104.8 177.184 104.31 176.204 103.33C175.244 102.35 174.594 101.3 174.254 100.18L174.974 99.61C175.134 99.81 175.364 99.91 175.664 99.91C176.324 99.91 176.654 99.52 176.654 98.74L176.564 98.05C176.184 97.85 175.714 97.75 175.154 97.75C174.614 97.75 174.094 97.91 173.594 98.23C173.094 98.55 172.754 99.01 172.574 99.61L173.294 100.18L174.794 101.98C174.514 102.92 174.044 103.62 173.384 104.08C172.744 104.56 172.054 104.8 171.314 104.8C170.594 104.8 169.834 104.55 169.034 104.05C168.134 104.55 167.304 104.8 166.544 104.8C165.504 104.8 164.584 104.3 163.784 103.3C163.004 102.3 162.614 101.26 162.614 100.18L163.544 99.61C163.584 99.81 163.774 99.91 164.114 99.91C164.474 99.91 164.814 99.67 165.134 99.19C165.474 98.71 165.684 98.18 165.764 97.6L164.174 95.8L164.534 93.64C165.394 93.64 166.044 93.7 166.484 93.82L167.684 87.7L166.424 86.17V82ZM177.554 94.66C177.734 94.52 177.934 94.27 178.154 93.91H178.934C179.254 94.29 179.544 94.54 179.804 94.66C179.884 94.52 180.044 94.35 180.284 94.15L178.574 85.3H180.284V82.84H167.264V85.3H168.974L167.234 94.15C167.474 94.33 167.654 94.5 167.774 94.66C168.014 94.52 168.294 94.27 168.614 93.91H169.394C169.554 94.29 169.724 94.54 169.904 94.66C170.664 93.9 171.944 93.52 173.744 93.52C175.564 93.52 176.834 93.9 177.554 94.66ZM179.894 101.17C180.774 101.85 181.614 102.19 182.414 102.19C183.234 102.19 183.774 101.67 184.034 100.63C183.934 100.71 183.794 100.75 183.614 100.75C182.854 100.75 182.204 100.38 181.664 99.64C181.144 98.88 180.884 98.16 180.884 97.48C180.884 96.06 181.434 95.27 182.534 95.11L182.414 94.39C182.034 94.39 181.744 94.41 181.544 94.45C181.364 94.47 181.144 94.59 180.884 94.81C180.624 95.01 180.404 95.33 180.224 95.77C179.764 95.69 179.244 95.35 178.664 94.75C178.524 95.01 178.354 95.23 178.154 95.41C177.974 95.57 177.764 95.69 177.524 95.77C176.744 94.81 175.484 94.33 173.744 94.33C172.004 94.33 170.764 94.81 170.024 95.77C169.564 95.69 169.174 95.35 168.854 94.75C168.374 95.27 167.874 95.61 167.354 95.77C167.174 95.33 166.944 95.01 166.664 94.81C166.404 94.59 166.174 94.47 165.974 94.45C165.774 94.41 165.494 94.39 165.134 94.39L165.014 95.11C165.574 95.19 165.984 95.43 166.244 95.83C166.524 96.21 166.664 96.75 166.664 97.45C166.664 98.15 166.394 98.88 165.854 99.64C165.334 100.38 164.704 100.75 163.964 100.75L163.544 100.63C163.804 101.67 164.324 102.19 165.104 102.19C165.904 102.19 166.754 101.85 167.654 101.17H167.834C168.514 101.85 169.194 102.19 169.874 102.19C170.774 102.19 171.554 101.67 172.214 100.63C172.054 100.71 171.874 100.75 171.674 100.75C170.554 100.75 169.994 100.17 169.994 99.01C169.994 97.85 170.374 96.94 171.134 96.28C171.894 95.6 172.774 95.26 173.774 95.26C174.774 95.26 175.654 95.6 176.414 96.28C177.174 96.94 177.554 97.85 177.554 99.01C177.554 100.17 176.994 100.75 175.874 100.75L175.304 100.63C175.944 101.67 176.734 102.19 177.674 102.19C178.374 102.19 179.054 101.85 179.714 101.17H179.894ZM171.044 92.8L172.664 85.3H174.884L176.564 92.8H171.044ZM174.734 88.45L173.954 92.02H175.544L174.734 88.45ZM200.644 95.05H198.424L198.754 95.44V97.63C197.974 97.63 197.464 97.77 197.224 98.05C197.004 98.33 196.894 98.78 196.894 99.4V99.85C197.034 99.85 197.154 99.77 197.254 99.61L198.094 100.15L199.594 101.95C199.474 102.89 199.134 103.6 198.574 104.08C198.014 104.56 197.334 104.8 196.534 104.8C195.754 104.8 194.984 104.53 194.224 103.99C193.464 104.53 192.674 104.8 191.854 104.8C191.054 104.8 190.134 104.32 189.094 103.36C188.054 102.4 187.474 101.33 187.354 100.15L188.194 99.61C188.274 99.79 188.464 99.88 188.764 99.88C189.624 99.88 190.054 99.13 190.054 97.63H189.694L188.194 95.83V93.64C189.014 93.64 189.594 93.67 189.934 93.73V88.03H189.094L187.594 86.23V82H203.704L205.204 83.8V91.12H201.724L200.224 89.32V88.03H197.014V89.77H199.144L200.644 91.57V95.05ZM191.614 94.63C191.814 94.51 192.054 94.27 192.334 93.91H193.114C193.374 94.27 193.614 94.51 193.834 94.63C194.034 94.35 194.294 94.13 194.614 93.97V92.41H198.304V90.61H194.614V85.39H201.064V88.48H202.864V82.84H188.434V85.39H190.834V93.97C191.114 94.11 191.374 94.33 191.614 94.63ZM192.814 101.17C193.534 101.79 194.324 102.1 195.184 102.1C196.064 102.1 196.704 101.6 197.104 100.6C196.964 100.68 196.804 100.72 196.624 100.72C195.224 100.72 194.524 99.69 194.524 97.63C194.524 95.95 195.184 95.11 196.504 95.11V94.36C196.124 94.36 195.834 94.38 195.634 94.42C195.434 94.44 195.184 94.56 194.884 94.78C194.584 95 194.314 95.33 194.074 95.77C193.594 95.67 193.144 95.32 192.724 94.72C192.304 95.26 191.854 95.61 191.374 95.77C191.114 95.33 190.834 95 190.534 94.78C190.234 94.56 189.984 94.44 189.784 94.42C189.584 94.38 189.304 94.36 188.944 94.36V95.11C190.264 95.11 190.924 95.95 190.924 97.63C190.924 99.15 190.604 100.1 189.964 100.48C189.664 100.64 189.284 100.72 188.824 100.72L188.344 100.6C188.744 101.6 189.374 102.1 190.234 102.1C191.114 102.1 191.914 101.79 192.634 101.17H192.814ZM224.187 102.61C224.187 103.31 224.367 103.77 224.727 103.99L224.187 104.8C223.667 104.8 223.117 104.67 222.537 104.41C221.977 104.15 221.537 103.87 221.217 103.57C220.877 103.87 220.297 104.15 219.477 104.41C218.677 104.67 217.917 104.8 217.197 104.8C215.737 104.8 214.547 104.41 213.627 103.63C212.807 104.41 211.867 104.8 210.807 104.8C209.767 104.8 208.797 104.29 207.897 103.27C207.017 102.27 206.507 101.23 206.367 100.15L207.207 99.61C207.307 99.77 207.507 99.85 207.807 99.85C208.607 99.85 209.007 99.11 209.007 97.63H208.707L207.207 95.83V93.64C208.047 93.64 208.637 93.67 208.977 93.73V88.03H208.137L206.637 86.23V82H222.747L224.247 83.8V91.12H220.767L219.267 89.32V88.03H216.057V89.77H218.187L219.687 91.57V95.05H217.437L217.767 95.44V97.63C217.447 97.65 217.187 97.68 216.987 97.72C216.787 97.74 216.577 97.84 216.357 98.02C216.137 98.2 216.027 98.46 216.027 98.8V98.92C216.307 99.02 216.707 99.07 217.227 99.07C217.747 99.07 218.237 98.91 218.697 98.59C219.157 98.27 219.387 97.82 219.387 97.24C219.387 97.14 219.327 96.85 219.207 96.37V95.41H222.687L224.187 97.21V102.61ZM210.627 94.63C210.827 94.51 211.067 94.27 211.347 93.91H212.157C212.417 94.27 212.647 94.51 212.847 94.63C213.067 94.35 213.337 94.13 213.657 93.97V92.41H217.347V90.61H213.657V85.39H220.107V88.48H221.907V82.84H207.477V85.39H209.877V94C210.137 94.14 210.387 94.35 210.627 94.63ZM220.197 97.36C220.197 98.16 219.887 98.79 219.267 99.25C218.667 99.71 217.927 99.94 217.047 99.94C216.167 99.94 215.377 99.69 214.677 99.19C213.997 98.67 213.657 97.89 213.657 96.85C213.657 96.49 213.797 96.12 214.077 95.74C214.377 95.34 214.847 95.14 215.487 95.14V94.42C215.127 94.42 214.847 94.44 214.647 94.48C214.467 94.5 214.227 94.62 213.927 94.84C213.627 95.04 213.357 95.35 213.117 95.77C212.637 95.67 212.177 95.33 211.737 94.75C211.377 95.27 210.927 95.61 210.387 95.77C210.127 95.35 209.847 95.04 209.547 94.84C209.247 94.62 208.997 94.5 208.797 94.48C208.617 94.44 208.347 94.42 207.987 94.42V95.14C208.667 95.14 209.157 95.38 209.457 95.86C209.777 96.32 209.937 96.97 209.937 97.81C209.937 98.65 209.797 99.34 209.517 99.88C209.257 100.42 208.697 100.69 207.837 100.69L207.417 100.63C207.777 101.65 208.407 102.16 209.307 102.16C210.207 102.16 211.087 101.71 211.947 100.81H212.217L212.337 100.93C213.297 101.73 214.457 102.13 215.817 102.13C217.197 102.13 218.497 101.66 219.717 100.72C219.897 100.9 220.267 101.16 220.827 101.5C221.387 101.82 221.827 102.01 222.147 102.07C221.967 101.87 221.877 101.35 221.877 100.51V96.31H220.047C220.147 96.65 220.197 97 220.197 97.36Z" fill="black"/>
<path d="M108.474 149.146C107.49 149.57 106.874 150.464 106.874 151.465C106.874 152.289 107.12 152.724 108.241 153.913C110.333 156.114 111.897 158.492 112.402 160.269C112.882 161.906 112.685 163.765 111.897 165.272C111.318 166.367 110.223 167.791 108.056 170.275C104.535 174.301 103.279 176.125 102.393 178.491C101.482 180.916 101.482 183.8 102.381 186.46C103.107 188.614 104.757 191.321 106.751 193.617C107.957 195.018 108.438 195.277 109.644 195.206C110.53 195.159 111.097 194.817 111.638 194.041C111.897 193.664 111.971 193.417 111.971 192.84C111.983 191.981 111.86 191.745 110.629 190.286C107.785 186.919 106.542 183.87 106.985 181.398C107.379 179.28 108.413 177.632 111.823 173.736C114.507 170.652 115.368 169.533 116.206 168.038C117.424 165.849 117.88 164.26 117.867 162.153C117.867 160.093 117.474 158.516 116.403 156.409C115.27 154.16 112.057 150.146 110.789 149.405C110.087 148.993 109.102 148.875 108.474 149.146Z" fill="#D9D9D9" stroke="black" stroke-width="3"/>
<path d="M121.708 149.687C120.613 149.923 119.763 150.994 119.788 152.1C119.788 152.936 119.997 153.277 121.327 154.713C123.333 156.903 124.552 158.716 125.18 160.446C125.488 161.27 125.525 161.552 125.525 162.8C125.512 164.118 125.488 164.283 125.118 165.166C124.54 166.543 123.321 168.227 120.945 170.934C117.929 174.359 117.079 175.489 116.119 177.314C113.694 181.94 114.186 186.531 117.67 191.639C118.975 193.558 120.514 195.312 121.154 195.641C122.533 196.336 124.355 195.547 124.798 194.076C125.094 193.099 124.909 192.569 123.789 191.215C122.619 189.803 121.499 188.226 120.97 187.237C120.022 185.436 119.615 183.364 119.911 181.905C120.342 179.809 121.388 178.185 124.81 174.265C126.078 172.806 127.482 171.134 127.913 170.557C128.861 169.286 130.042 167.002 130.375 165.802C131.569 161.576 130.289 157.385 126.386 152.736C124.835 150.876 123.801 149.934 123.087 149.734C122.398 149.534 122.41 149.534 121.708 149.687Z" fill="#D9D9D9" stroke="black" stroke-width="3"/>
<path d="M135.977 149.664C134.942 149.911 134.142 150.735 134.007 151.712C133.871 152.595 134.13 153.195 135.004 154.125C138.709 158.056 140.174 160.976 139.744 163.589C139.436 165.543 138.377 167.261 135.423 170.616C131.594 174.971 130.548 176.455 129.612 178.879C129.009 180.457 128.849 181.375 128.861 183.282C128.886 185.177 129.156 186.389 129.994 188.32C131.138 190.945 134.118 194.994 135.349 195.606C136.949 196.407 138.906 195.382 139.091 193.664C139.177 192.84 138.919 192.287 137.811 190.992C134.524 187.107 133.379 183.764 134.376 180.951C135.053 179.044 135.841 177.902 138.968 174.324C140.211 172.9 141.59 171.252 142.021 170.675C146.773 164.33 145.899 158.292 139.202 151.17C137.971 149.852 137.035 149.417 135.977 149.664Z" fill="#D9D9D9" stroke="black" stroke-width="3"/>
<path d="M67.1724 198.337C66.0644 198.667 65.2519 199.349 64.7472 200.35L64.4025 201.056V204.47C64.4025 218.124 66.2367 230.566 69.6345 240.077C71.678 245.786 74.6449 251.519 78.0057 256.215L79.1752 257.851H68.465C57.4593 257.851 56.9669 257.875 56.0313 258.322C55.3788 258.64 54.6771 259.358 54.3201 260.088C54.0616 260.606 54 260.912 54 261.618C54 262.925 54.3324 263.513 56.0559 265.232C56.8191 265.997 58.5919 267.869 59.983 269.387C61.3741 270.906 63.1837 272.801 64.0085 273.589C70.1146 279.475 77.0701 282.241 90.9934 284.301L94.0095 284.748L119.96 284.784L145.911 284.807L148.275 284.454C157.397 283.065 163.601 281.417 168.402 279.11C172.773 277.015 175.309 275.049 180.344 269.881C182.08 268.08 184.197 265.926 185.059 265.091C186.844 263.325 187.078 262.901 187.065 261.559C187.065 260.971 186.979 260.559 186.782 260.123C186.45 259.393 185.527 258.534 184.702 258.169L184.123 257.91L172.711 257.875L161.287 257.84L161.952 256.992C164.512 253.673 167.393 248.953 168.993 245.433C169.634 244.009 169.67 243.962 169.744 244.162C169.88 244.503 171.074 246.292 171.726 247.116C172.662 248.282 174.373 249.894 175.629 250.789C176.17 251.177 177.34 251.836 178.214 252.26C180.799 253.484 182.966 253.967 185.994 253.967C193.898 253.967 201.567 249.247 206.553 241.313C208.954 237.487 210.431 233.544 211.17 228.953C211.379 227.647 211.428 226.752 211.44 224.598C211.44 221.597 211.28 220.196 210.653 217.736C208.991 211.226 204.62 206 199.007 203.811C191.94 201.056 183.385 203.045 177.069 208.931L176.17 209.767L176.207 205.411L176.244 201.056L175.924 200.397C175.518 199.585 174.841 198.937 173.967 198.537L173.29 198.231L120.477 198.207C78.2765 198.196 67.5663 198.219 67.1724 198.337ZM195.203 210.414C199.179 211.603 202.183 215.287 203.278 220.337C203.611 221.867 203.734 225.34 203.525 227.141C202.983 231.684 201.087 236.216 198.231 239.783C197.295 240.972 195.387 242.761 194.119 243.679C192.642 244.75 190.586 245.727 188.924 246.163C187.866 246.433 187.447 246.481 185.97 246.481C184.049 246.492 183.163 246.304 181.599 245.551C177.685 243.667 175.063 239.124 174.718 233.615C174.349 227.623 176.195 221.773 179.962 216.982C182.806 213.38 186.438 210.991 190.217 210.226C191.448 209.979 194.107 210.084 195.203 210.414Z" fill="#D9D9D9" stroke="black" stroke-width="3"/>
</g>
<defs>
<filter id="filter0_d_106_14" x="-4" y="0" width="258" height="383" filterUnits="userSpaceOnUse" color-interpolation-filters="sRGB">
<feFlood flood-opacity="0" result="BackgroundImageFix"/>
<feColorMatrix in="SourceAlpha" type="matrix" values="0 0 0 0 0 0 0 0 0 0 0 0 0 0 0 0 0 0 127 0" result="hardAlpha"/>
<feOffset dy="4"/>
<feGaussianBlur stdDeviation="2"/>
<feComposite in2="hardAlpha" operator="out"/>
<feColorMatrix type="matrix" values="0 0 0 0 0 0 0 0 0 0 0 0 0 0 0 0 0 0 0.25 0"/>
<feBlend mode="normal" in2="BackgroundImageFix" result="effect1_dropShadow_106_14"/>
<feBlend mode="normal" in="SourceGraphic" in2="effect1_dropShadow_106_14" result="shape"/>
</filter>
<clipPath id="clip0_106_14">
<rect width="250" height="375" fill="white"/>
</clipPath>
</defs>
</svg>
