<svg width="2500" height="2500" viewBox="0 0 2500 2500" fill="none" xmlns="http://www.w3.org/2000/svg">
<g clip-path="url(#clip0_105_5)">
<path d="M2230 8.00024H270C125.301 8.00024 8 125.302 8 270V2230C8 2374.7 125.301 2492 270 2492H2230C2374.7 2492 2492 2374.7 2492 2230V270C2492 125.302 2374.7 8.00024 2230 8.00024Z" fill="#286335" stroke="black" stroke-width="16"/>
<path d="M2377.03 227.456C2369.19 279.694 2296.06 290.137 2296.06 273.165C2296.06 256.193 2301.29 158.247 2273.86 150.418C2246.44 142.582 2256.88 102.102 2242.52 98.1872C2231.7 95.2319 2219.42 95.9494 2214 96.4893C2208.59 95.9565 2196.3 95.2319 2185.48 98.1872C2171.11 102.102 2181.56 142.589 2154.14 150.418C2126.71 158.254 2131.93 256.193 2131.93 273.165C2131.93 290.137 2058.81 279.687 2050.97 227.456C2043.14 175.226 1977.84 301.887 2041.84 352.811C2099.81 398.953 2196.36 399.01 2214 398.605C2231.65 399.01 2328.2 398.953 2386.16 352.811C2450.16 301.895 2384.87 175.226 2377.03 227.456ZM2156.75 256.52C2151.34 256.52 2146.96 252.129 2146.96 246.73C2146.96 241.324 2151.35 236.947 2156.75 236.947C2162.16 236.947 2166.54 241.331 2166.54 246.73C2166.54 252.129 2162.16 256.52 2156.75 256.52ZM2192.01 264.349C2186.6 264.349 2182.22 259.958 2182.22 254.559C2182.22 249.145 2186.61 244.769 2192.01 244.769C2197.41 244.769 2201.8 249.16 2201.8 254.559C2201.8 259.965 2197.41 264.349 2192.01 264.349ZM2239.02 264.349C2233.6 264.349 2229.23 259.958 2229.23 254.559C2229.23 249.145 2233.61 244.769 2239.02 244.769C2244.43 244.769 2248.81 249.16 2248.81 254.559C2248.81 259.965 2244.43 264.349 2239.02 264.349ZM2274.27 256.52C2268.86 256.52 2264.49 252.129 2264.49 246.73C2264.49 241.324 2268.87 236.947 2274.27 236.947C2279.67 236.947 2284.06 241.331 2284.06 246.73C2284.07 252.129 2279.68 256.52 2274.27 256.52Z" fill="black"/>
<path d="M2271.97 489.816C2273.72 461.008 2265.53 445.649 2256.05 437.394C2252.02 429.373 2244.03 423.761 2234.61 423.072C2234.6 424.755 2234.33 426.382 2233.93 427.938C2232.2 434.751 2227.12 440.143 2220.52 442.353C2219.39 442.729 2218.24 443.035 2217.03 443.198C2216.03 443.347 2215.04 443.504 2214 443.504C2212.95 443.504 2211.96 443.347 2210.96 443.198C2209.75 443.035 2208.59 442.729 2207.46 442.353C2200.87 440.136 2195.79 434.751 2194.07 427.938C2193.66 426.382 2193.4 424.763 2193.39 423.072C2183.96 423.761 2175.98 429.373 2171.94 437.394C2162.46 445.649 2154.27 461.008 2156.02 489.816C2159.9 553.442 2126.64 543.759 2126.64 543.759C2126.64 543.759 2191.94 565.05 2214 496.125C2236.04 565.05 2301.34 543.759 2301.34 543.759C2301.34 543.759 2268.09 553.428 2271.97 489.816Z" fill="black"/>
<path d="M423.186 408.646L351.039 355.202V149.457L273.996 118.633V96.0002H238.367V120.172L169.343 149.457L174.682 360.548C174.682 360.548 174.212 363.034 173.49 367.22H152.945C152.874 367.06 152.888 366.879 152.977 366.724L163.604 347.634C163.733 347.409 163.694 347.133 163.514 346.952C163.334 346.772 163.051 346.733 162.832 346.855L143.735 357.489C143.587 357.572 143.394 357.585 143.24 357.521C143.079 357.457 142.956 357.314 142.904 357.154L136.927 336.125C136.85 335.873 136.631 335.713 136.374 335.713C136.116 335.713 135.897 335.873 135.826 336.125L129.843 357.154C129.792 357.314 129.676 357.456 129.508 357.521C129.354 357.585 129.167 357.572 129.018 357.489L109.922 346.855C109.697 346.732 109.419 346.772 109.232 346.952C109.059 347.133 109.02 347.41 109.142 347.634L119.769 366.724C119.859 366.879 119.872 367.06 119.808 367.22C119.737 367.387 119.602 367.503 119.435 367.555L98.4123 373.532C98.168 373.609 98 373.835 98 374.086C98 374.343 98.1672 374.569 98.4123 374.64L119.435 380.622C119.602 380.668 119.737 380.79 119.808 380.958C119.872 381.112 119.86 381.293 119.769 381.454L109.142 400.543C109.02 400.762 109.059 401.045 109.232 401.225C109.419 401.4 109.696 401.445 109.922 401.315L129.018 390.688C129.167 390.598 129.354 390.591 129.508 390.656C129.675 390.727 129.792 390.856 129.843 391.023L135.826 412.045C135.897 412.297 136.116 412.464 136.374 412.464C136.631 412.464 136.85 412.297 136.927 412.045L142.904 391.023C142.956 390.856 143.079 390.727 143.24 390.656C143.394 390.592 143.587 390.598 143.735 390.688L162.832 401.315C163.051 401.444 163.334 401.399 163.514 401.225C163.694 401.045 163.733 400.762 163.604 400.543L152.977 381.454C152.887 381.293 152.874 381.112 152.945 380.958C153.016 380.79 153.145 380.668 153.318 380.622L156.101 379.83H171.436C168.293 400.195 163.997 433.26 163.997 462.083L177.361 507.51H262.866V470.096H289.582L340.347 507.51H407.155L487.315 486.133L498 430.016L423.186 408.646ZM331.072 381.532C331.072 385.486 329.448 389.125 326.86 391.708C324.271 394.303 320.631 395.933 316.684 395.925H282.679C278.723 395.932 275.078 394.303 272.495 391.708C269.906 389.125 268.277 385.486 268.277 381.532V350.7C268.277 346.746 269.906 343.107 272.495 340.517C275.078 337.922 278.723 336.299 282.679 336.306H316.684C320.632 336.299 324.272 337.922 326.86 340.517C329.449 343.106 331.072 346.745 331.072 350.7V381.532Z" fill="black"/>
<path d="M316.684 350.294H282.679L282.388 350.417L282.266 350.7V381.531L282.388 381.815L282.679 381.937H316.684L316.968 381.815L317.084 381.531V371.226H306.656C303.346 371.226 300.66 368.546 300.66 365.237C300.66 361.92 303.346 359.241 306.656 359.241H317.083V350.7L316.967 350.417L316.684 350.294Z" fill="black"/>
<path d="M2344.81 2147.7C2323.68 2148.99 2299.3 2150.32 2278.75 2150.32C2256.41 2150.32 2240.83 2148.78 2229.77 2145.46C2223.86 2143.69 2218.59 2141.25 2214 2138.17C2209.41 2141.25 2204.14 2143.69 2198.25 2145.46C2187.17 2148.78 2171.62 2150.32 2149.25 2150.32C2128.72 2150.32 2104.32 2148.99 2083.16 2147.7C2080.48 2147.54 2077.84 2147.26 2075.25 2146.9L2032.33 2177.04C2032.33 2177.04 2075.13 2219.84 2112.19 2190.25C2112.19 2211.38 2121.43 2235.68 2142.05 2249.95L2153.14 2294.15C2139.39 2298.26 2129.36 2310.98 2129.36 2326.05C2129.36 2344.44 2144.27 2359.34 2162.66 2359.34H2265.37C2283.75 2359.34 2298.64 2344.44 2298.64 2326.05C2298.64 2310.98 2288.61 2298.26 2274.86 2294.15L2285.97 2249.95C2306.58 2235.68 2315.82 2211.38 2315.82 2190.25C2352.87 2219.84 2395.68 2177.04 2395.68 2177.04L2352.75 2146.89C2350.15 2147.26 2347.51 2147.54 2344.81 2147.7ZM2149.06 2223.15C2142.08 2223.15 2136.44 2217.48 2136.44 2210.51C2136.44 2208.67 2136.83 2206.95 2137.54 2205.36L2132.04 2197.89H2149.06C2156.02 2197.89 2161.68 2203.54 2161.68 2210.51C2161.68 2217.48 2156.02 2223.15 2149.06 2223.15ZM2161.71 2340.63C2155.38 2340.63 2150.28 2335.52 2150.28 2329.23C2150.28 2322.91 2155.38 2317.8 2161.71 2317.8C2168 2317.8 2173.11 2322.91 2173.11 2329.23C2173.11 2335.52 2168 2340.63 2161.71 2340.63ZM2277.75 2329.23C2277.75 2335.53 2272.62 2340.63 2266.32 2340.63C2260.02 2340.63 2254.92 2335.53 2254.92 2329.23C2254.92 2322.92 2260.02 2317.8 2266.32 2317.8C2272.62 2317.8 2277.75 2322.92 2277.75 2329.23ZM2290.46 2205.36C2291.17 2206.95 2291.59 2208.67 2291.59 2210.51C2291.59 2217.48 2285.95 2223.15 2278.97 2223.15C2271.98 2223.15 2266.34 2217.48 2266.34 2210.51C2266.34 2203.54 2271.98 2197.89 2278.97 2197.89H2295.96L2290.46 2205.36Z" fill="black"/>
<path d="M2083.75 2133.77C2135.26 2136.94 2174.64 2138.17 2195.52 2131.91C2203.65 2129.48 2209.63 2125.82 2214 2121.58C2218.39 2125.82 2224.38 2129.48 2232.51 2131.91C2253.36 2138.17 2292.74 2136.94 2344.25 2133.77C2384.68 2131.39 2414 2102.54 2414 2064.02C2414 2031.51 2390.86 1997.98 2358.38 1989.26C2352.38 1987.65 2350.22 1993.85 2354.44 1999.12C2364.73 2011.94 2369.76 2030.78 2363.78 2044.4C2360.14 2052.66 2354.45 2060.26 2346.49 2062.84C2321.01 2071.14 2284.56 2055.82 2239.63 2059.25C2229.5 2060.17 2220.52 2064.14 2214 2070.33C2207.5 2064.14 2198.52 2060.17 2188.39 2059.25C2143.47 2055.82 2107 2071.14 2081.52 2062.84C2073.55 2060.26 2067.87 2052.66 2064.23 2044.4C2058.24 2030.78 2063.28 2011.94 2073.56 1999.12C2077.79 1993.85 2075.63 1987.65 2069.63 1989.26C2037.14 1997.98 2014 2031.51 2014 2064.02C2014 2102.54 2043.33 2131.39 2083.75 2133.77Z" fill="black"/>
<path d="M434.093 2159.58C414.593 2161.94 378.977 2157.85 392.398 2137.37C398.658 2133.72 404.892 2130.83 407.717 2130.83C413.319 2130.83 417.861 2126.29 417.861 2120.69C417.861 2115.08 413.319 2110.54 407.717 2110.54C399.434 2110.54 388.925 2115.72 381.071 2120.43C374.603 2117.23 370.679 2107.58 370.679 2107.58H132.716L114.913 2091V2105.89H98V2160.85H220.55C239.118 2160.85 268.249 2171.16 270.889 2198.95C270.594 2200.96 270.395 2202.99 270.395 2205.06C270.395 2232.43 296.929 2254.69 329.542 2254.69C348.196 2254.69 364.861 2247.41 375.711 2236.06C376.36 2235.38 376.949 2234.67 377.553 2233.96L377.558 2233.98C377.558 2233.98 377.584 2233.93 377.595 2233.91C394.825 2170.57 434.093 2159.58 434.093 2159.58ZM303.35 2124.91H351.544C355.219 2124.91 358.204 2127.89 358.204 2131.57C358.204 2135.25 355.22 2138.23 351.544 2138.23H303.35C299.673 2138.23 296.692 2135.25 296.692 2131.57C296.693 2127.89 299.673 2124.91 303.35 2124.91ZM303.35 2147.11H351.544C355.219 2147.11 358.204 2150.09 358.204 2153.77C358.204 2157.44 355.22 2160.42 351.544 2160.42H303.35C299.673 2160.42 296.692 2157.44 296.692 2153.77C296.693 2150.09 299.673 2147.11 303.35 2147.11ZM329.543 2232.02C309.771 2232.02 293.065 2219.68 293.065 2205.06C293.065 2190.45 309.771 2178.1 329.543 2178.1C334.438 2178.1 339.145 2178.86 343.46 2180.22C338.908 2190.57 330.797 2204.14 322.588 2205.13C318.417 2205.64 315.443 2209.43 315.949 2213.6C316.415 2217.46 319.698 2220.3 323.495 2220.3C323.802 2220.3 324.11 2220.28 324.421 2220.24C340.68 2218.27 351.59 2199.33 356.895 2187.47C362.533 2192.24 366.022 2198.41 366.022 2205.06C366.021 2219.68 349.316 2232.02 329.543 2232.02Z" fill="black"/>
<path d="M442.12 2167.61C397.311 2181.56 388.853 2236.52 388.853 2236.52C406.744 2238.48 409.993 2301.63 409.993 2301.63C403.988 2333.52 460.4 2375.44 487.358 2316.42C524.096 2236 454.943 2170.05 442.12 2167.61Z" fill="black"/>
</g>
<defs>
<clipPath id="clip0_105_5">
<rect width="2500" height="2500" fill="white"/>
</clipPath>
</defs>
</svg>
